<svg xmlns="http://www.w3.org/2000/svg" version="1.1" xmlns:xlink="http://www.w3.org/1999/xlink" xmlns:svgjs="http://svgjs.dev/svgjs" width="1500" height="1500" viewBox="0 0 1500 1500"><rect width="1500" height="1500" fill="#000000"></rect><g transform="matrix(0.6666666666666666,0,0,0.6666666666666666,250.87859504792323,256.4)"><svg viewBox="0 0 250 247" data-background-color="#ffffff" preserveAspectRatio="xMidYMid meet" height="1482" width="1500" xmlns="http://www.w3.org/2000/svg" xmlns:xlink="http://www.w3.org/1999/xlink"><g id="tight-bounds" transform="matrix(1,0,0,1,-0.21964876198080674,-0.09999999999999432)"><svg viewBox="0 0 250.43929752396164 247.2" height="247.2" width="250.43929752396164"><g><svg viewBox="0 0 395.52 390.4041616737296" height="247.2" width="250.43929752396164"><g transform="matrix(1,0,0,1,0,286.31611588901217)"><svg viewBox="0 0 395.52 104.08804578471745" height="104.08804578471745" width="395.52"><g id="textblocktransform"><svg viewBox="0 0 395.52 104.08804578471745" height="104.08804578471745" width="395.52" id="textblock"><g><svg viewBox="0 0 395.52 70.96825749167591" height="70.96825749167591" width="395.52"><g transform="matrix(1,0,0,1,0,0)"><svg width="395.52" viewBox="2.5 -39 270.28 48.5" height="70.96825749167591" data-palette-color="#398378"><path d="M18.8-3L18.8-3Q23.05-3 25.08-5.13 27.1-7.25 27.1-11.4L27.1-11.4 27.1-14.4 22.9-15.45 22.9-17.95 36.8-17.95 36.8-15.45 32.6-14.4 32.6 0 29.5 0 28.25-3.95Q26.1-1.55 23.78-0.53 21.45 0.5 18.3 0.5L18.3 0.5Q11.45 0.5 7.35-3.7L7.35-3.7Q5.05-6.05 3.78-9.65 2.5-13.25 2.5-17.6L2.5-17.6Q2.5-22.05 3.83-25.88 5.15-29.7 7.55-32.2L7.55-32.2Q9.6-34.35 12.35-35.43 15.1-36.5 18.65-36.5L18.65-36.5Q21.65-36.5 23.73-35.63 25.8-34.75 27.65-32.65L27.65-32.65 28.75-36 32-36 32-24.7 28.45-24.7Q27.75-28.95 25.28-31.25 22.8-33.55 18.6-33.55L18.6-33.55Q16.15-33.55 14.5-32.75 12.85-31.95 11.65-30.3L11.65-30.3Q10.25-28.2 9.4-25.05 8.55-21.9 8.55-18.3L8.55-18.3Q8.55-14.65 9.43-11.48 10.3-8.3 11.9-6.1L11.9-6.1Q13.1-4.5 14.78-3.75 16.45-3 18.8-3ZM54.6-23.85L54.6-23.85Q54.45-23.95 54.27-24 54.1-24.05 53.9-24.05L53.9-24.05Q53.35-24.05 52.65-23.45 51.95-22.85 51.32-21.95 50.7-21.05 50.25-20L50.25-20Q49.55-18.3 49.15-16.35 48.75-14.4 48.75-12.1L48.75-12.1 48.75-3.25 54.15-2.3 54.15 0 39.55 0 39.55-2.3 43.4-3.25 43.4-24 39.55-24.95 39.55-27 47.25-27 48.35-20.4 48.55-20.4Q49.7-23.8 51.65-25.65 53.6-27.5 55.95-27.5L55.95-27.5Q57.9-27.5 59.2-26.28 60.5-25.05 60.5-23L60.5-23Q60.5-21.5 59.67-20.5 58.85-19.5 57.45-19.5L57.45-19.5Q55.9-19.5 55.12-20.38 54.35-21.25 54.35-22.5L54.35-22.5Q54.35-22.8 54.37-23.05 54.4-23.3 54.6-23.85ZM62.75-5.85L62.75-5.85Q62.75-9.85 66.45-12.1 70.15-14.35 78.5-15.6L78.5-15.6Q78.3-18.4 77.95-19.95 77.59-21.5 77.05-22.5L77.05-22.5Q76.4-23.75 75.25-24.4 74.09-25.05 72.65-25.05L72.65-25.05Q71.34-25.05 70.3-24.58 69.25-24.1 68.9-23.3L68.9-23.3Q69.59-22.85 69.9-22.08 70.2-21.3 70.2-20.65L70.2-20.65Q70.2-19.4 69.3-18.6 68.4-17.8 67.05-17.8L67.05-17.8Q65.75-17.8 64.92-18.68 64.09-19.55 64.09-21L64.09-21Q64.09-23.1 65.55-24.55 67-26 69.25-26.75 71.5-27.5 73.75-27.5L73.75-27.5Q75.9-27.5 77.67-26.85 79.45-26.2 80.65-25.1L80.65-25.1Q84-21.85 84-14.05L84-14.05 84-7.05Q84-4.6 84.32-3.65 84.65-2.7 85.75-2.7L85.75-2.7 88-2.7 88-0.95Q84.09 0.5 81.95 0.5L81.95 0.5Q80.4 0.5 79.84-0.63 79.3-1.75 79.3-4.95L79.3-4.95 79.09-4.95Q77.55-2.4 75-0.95 72.45 0.5 69.5 0.5L69.5 0.5Q66.34 0.5 64.55-1.2 62.75-2.9 62.75-5.85ZM71.95-2.65L71.95-2.65Q73.2-2.65 74.65-3.38 76.09-4.1 77.09-5.35L77.09-5.35Q77.84-6.25 78.25-7.6 78.65-8.95 78.65-10.8L78.65-10.8Q78.65-11.55 78.59-12.35 78.55-13.15 78.45-13.9L78.45-13.9Q74.59-13.1 72.42-12.2 70.25-11.3 69.32-10.05 68.4-8.8 68.4-7L68.4-7Q68.4-4.85 69.4-3.75 70.4-2.65 71.95-2.65ZM89.74-2.3L93.59-3.25 93.59-23.75 89.74-24.7 89.74-27 97.44-27 98.54-22 98.74-22Q100.24-24.55 102.79-26.03 105.34-27.5 108.24-27.5L108.24-27.5Q112.39-27.5 114.39-24.8L114.39-24.8Q115.39-23.4 115.82-20.88 116.24-18.35 116.24-14.05L116.24-14.05 116.24-3.25 120.09-2.3 120.09 0 107.54 0 107.54-2.3 110.89-3.25 110.89-13.9Q110.89-17.05 110.72-18.68 110.54-20.3 110.09-21.25L110.09-21.25Q109.54-22.5 108.47-23.08 107.39-23.65 105.94-23.65L105.94-23.65Q103.19-23.65 101.19-21.9L101.19-21.9Q99.14-20 98.94-16.1L98.94-16.1 98.94-3.25 102.29-2.3 102.29 0 89.74 0 89.74-2.3ZM123.24-13.3L123.24-13.3Q123.24-16.6 124.12-19.53 124.99-22.45 126.64-24.25L126.64-24.25Q128.09-25.85 130.09-26.68 132.09-27.5 134.69-27.5L134.69-27.5Q136.94-27.5 138.74-26.65 140.54-25.8 141.99-23.6L141.99-23.6 141.99-35.75 138.14-36.7 138.14-39 147.34-39 147.34-3.25 151.19-2.3 151.19 0 142.94 0.5 142.54-3.6Q140.99-1.3 139.04-0.4 137.09 0.5 134.64 0.5L134.64 0.5Q132.04 0.5 130.04-0.28 128.04-1.05 126.69-2.65L126.69-2.65Q125.14-4.55 124.19-7.3 123.24-10.05 123.24-13.3ZM141.99-13.3L141.99-13.3Q141.99-16.3 141.54-18.53 141.09-20.75 140.29-22.05L140.29-22.05Q139.49-23.3 138.34-23.98 137.19-24.65 135.39-24.65L135.39-24.65Q133.89-24.65 132.62-24.08 131.34-23.5 130.59-22.3L130.59-22.3Q129.74-21.05 129.37-18.8 128.99-16.55 128.99-13.75L128.99-13.75Q128.99-10.75 129.44-8.55 129.89-6.35 130.64-5L130.64-5Q131.44-3.75 132.64-3.05 133.84-2.35 135.54-2.35L135.54-2.35Q137.09-2.35 138.34-2.9 139.59-3.45 140.29-4.65L140.29-4.65Q141.09-6 141.54-8.2 141.99-10.4 141.99-13.3ZM154.04-2.3L157.89-3.25 157.89-23.75 154.04-24.7 154.04-27 161.74-27 162.84-22 163.04-22Q164.49-24.5 166.91-26 169.34-27.5 172.09-27.5L172.09-27.5Q174.14-27.5 175.74-26.73 177.34-25.95 178.09-24.8L178.09-24.8Q178.89-23.55 179.39-21.5L179.39-21.5Q180.99-24.3 183.54-25.9 186.09-27.5 188.99-27.5L188.99-27.5Q190.99-27.5 192.59-26.73 194.19-25.95 195.04-24.6L195.04-24.6Q195.64-23.65 195.99-22.15 196.34-20.65 196.49-18.28 196.64-15.9 196.64-12.25L196.64-12.25 196.64-3.25 200.49-2.3 200.49 0 187.94 0 187.94-2.3 191.29-3.25 191.29-13.9Q191.29-17.15 191.11-18.75 190.94-20.35 190.49-21.25L190.49-21.25Q189.94-22.45 188.94-23.03 187.94-23.6 186.69-23.6L186.69-23.6Q185.44-23.6 184.29-23.15 183.14-22.7 182.19-21.85L182.19-21.85Q181.09-20.85 180.56-19.5 180.04-18.15 179.94-16.1L179.94-16.1 179.94-3.25 183.29-2.3 183.29 0 171.24 0 171.24-2.3 174.59-3.25 174.59-13.9Q174.59-17.15 174.41-18.75 174.24-20.35 173.79-21.25L173.79-21.25Q173.24-22.45 172.24-23.03 171.24-23.6 169.99-23.6L169.99-23.6Q168.74-23.6 167.59-23.15 166.44-22.7 165.49-21.85L165.49-21.85Q164.39-20.85 163.86-19.5 163.34-18.15 163.24-16.1L163.24-16.1 163.24-3.25 166.59-2.3 166.59 0 154.04 0 154.04-2.3ZM203.19-5.85L203.19-5.85Q203.19-9.85 206.88-12.1 210.59-14.35 218.94-15.6L218.94-15.6Q218.74-18.4 218.38-19.95 218.03-21.5 217.49-22.5L217.49-22.5Q216.84-23.75 215.69-24.4 214.53-25.05 213.09-25.05L213.09-25.05Q211.78-25.05 210.74-24.58 209.69-24.1 209.34-23.3L209.34-23.3Q210.03-22.85 210.34-22.08 210.63-21.3 210.63-20.65L210.63-20.65Q210.63-19.4 209.74-18.6 208.84-17.8 207.49-17.8L207.49-17.8Q206.19-17.8 205.36-18.68 204.53-19.55 204.53-21L204.53-21Q204.53-23.1 205.99-24.55 207.44-26 209.69-26.75 211.94-27.5 214.19-27.5L214.19-27.5Q216.34-27.5 218.11-26.85 219.88-26.2 221.09-25.1L221.09-25.1Q224.44-21.85 224.44-14.05L224.44-14.05 224.44-7.05Q224.44-4.6 224.76-3.65 225.09-2.7 226.19-2.7L226.19-2.7 228.44-2.7 228.44-0.95Q224.53 0.5 222.38 0.5L222.38 0.5Q220.84 0.5 220.28-0.63 219.74-1.75 219.74-4.95L219.74-4.95 219.53-4.95Q217.99-2.4 215.44-0.95 212.88 0.5 209.94 0.5L209.94 0.5Q206.78 0.5 204.99-1.2 203.19-2.9 203.19-5.85ZM212.38-2.65L212.38-2.65Q213.63-2.65 215.09-3.38 216.53-4.1 217.53-5.35L217.53-5.35Q218.28-6.25 218.69-7.6 219.09-8.95 219.09-10.8L219.09-10.8Q219.09-11.55 219.03-12.35 218.99-13.15 218.88-13.9L218.88-13.9Q215.03-13.1 212.86-12.2 210.69-11.3 209.76-10.05 208.84-8.8 208.84-7L208.84-7Q208.84-4.85 209.84-3.75 210.84-2.65 212.38-2.65ZM229.78-2.3L233.63-3.25 233.63-35.75 229.78-36.7 229.78-39 238.98-39 238.98-3.25 242.83-2.3 242.83 0 229.78 0 229.78-2.3ZM272.78-24.7L269.73-23.75 261.53-1.2Q260.03 2.65 258.81 5.03 257.58 7.4 256.11 8.45 254.63 9.5 252.33 9.5L252.33 9.5Q249.98 9.5 248.31 8.25 246.63 7 246.63 5.1L246.63 5.1Q246.63 3.6 247.5 2.6 248.38 1.6 249.78 1.6L249.78 1.6Q251.03 1.6 251.73 2.23 252.43 2.85 252.43 4.05L252.43 4.05Q252.43 4.65 252.08 5.38 251.73 6.1 251.03 6.45L251.03 6.45Q251.13 6.95 251.63 7.13 252.13 7.3 252.48 7.3L252.48 7.3Q253.18 7.3 253.78 6.98 254.38 6.65 255.06 5.58 255.73 4.5 256.53 2.2L256.53 2.2 257.13 0.35 246.88-23.75 243.88-24.7 243.88-27 255.58-27 255.98-24.7 252.43-23.75 259.43-4.9 259.63-4.9 265.68-23.75 262.78-24.7 262.78-27 272.78-27 272.78-24.7Z" opacity="1" transform="matrix(1,0,0,1,0,0)" fill="#ffffff" class="wordmark-text-0" data-fill-palette-color="primary" id="text-0"></path></svg></g></svg></g><g transform="matrix(1,0,0,1,75.54431999999998,87.72215984728079)"><svg viewBox="0 0 244.43136 16.36588593743666" height="16.36588593743666" width="244.43136"><g transform="matrix(1,0,0,1,0,0)"><svg width="244.43136" viewBox="2.25 -37.5 739.97 49.55" height="16.36588593743666" data-palette-color="#398378"><path d="M24.1 0L9.6 0 9.6-0.8 14.6-2.8 14.6-30.25 6.45-30.25 3.05-22.9 2.25-22.9 2.25-33 31.45-33 31.45-22.9 30.65-22.9 27.25-30.25 19.1-30.25 19.1-2.8 24.1-0.8 24.1 0ZM46.65 0.5L46.65 0.5Q41.8 0.5 39-2.45 36.2-5.4 36.2-10.25L36.2-10.25Q36.2-14 37.67-16.88 39.15-19.75 41.57-21.38 44-23 46.85-23L46.85-23Q50.8-23 53.07-20.25 55.35-17.5 55.35-12.35L55.35-12.35 55.1-12.1 40.15-12.1Q40.2-9.8 41.05-7.78 41.9-5.75 43.77-4.5 45.65-3.25 48.8-3.25L48.8-3.25Q51.55-3.25 55.25-5.25L55.25-5.25 55.4-5.25 55.4-4.75Q54.25-2.6 51.97-1.05 49.7 0.5 46.65 0.5ZM46.05-20.8L46.05-20.8Q43.65-20.8 42.12-19.13 40.6-17.45 40.25-14.4L40.25-14.4 51.55-14.4Q51-17.8 49.62-19.3 48.25-20.8 46.05-20.8ZM67.95 0L59.2 0 59.2-0.8 61.9-2.55 68.45-11.15 61.8-20.15 59.45-21.7 59.45-22.5 69.8-22.5 69.8-21.7 66.4-20.2 66.4-19.9 71.05-13.6 75.1-19.6 75.1-19.9 72.25-21.7 72.25-22.5 80.55-22.5 80.55-21.7 77.9-19.95 72.05-12.25 79.35-2.35 81.4-0.8 81.4 0 71.7 0 71.7-0.8 74.75-2.3 74.75-2.6 69.45-9.75 64.85-2.9 64.85-2.6 67.95-0.8 67.95 0ZM93.09 0.5L93.09 0.5Q90.89 0.5 89.29-0.8 87.69-2.1 87.69-4.45L87.69-4.45 87.69-20.15 83.59-20.15 83.59-20.45 87.84-22.5 91.39-28 91.69-28 91.69-22.5 98.29-22.5 98.29-20.15 91.69-20.15 91.69-5.3Q91.69-4 92.84-3.4 93.99-2.8 95.54-2.8L95.54-2.8Q96.49-2.8 97.32-2.9 98.14-3 98.74-3.15L98.74-3.15 98.89-3.15 98.89-2.65Q98.39-1.5 96.92-0.5 95.44 0.5 93.09 0.5ZM123.99 0L122.94 0 115.09-20.15 111.74-21.7 111.74-22.5 123.69-22.5 123.69-21.7 119.59-20.2 119.59-19.9 124.79-6.05 124.99-6.05 132.09-22.5 133.14-22.5 140.24-6.2 140.44-6.2 145.49-19.6 145.49-19.9 141.89-21.7 141.89-22.5 151.69-22.5 151.69-21.7 147.99-19.95 139.64 0 138.59 0 131.39-16.3 123.99 0ZM158.24-29.05L158.24-29.05Q156.94-29.05 156.09-29.93 155.24-30.8 155.24-32.05L155.24-32.05Q155.24-33.35 156.09-34.2 156.94-35.05 158.24-35.05L158.24-35.05Q159.54-35.05 160.39-34.2 161.24-33.35 161.24-32.05L161.24-32.05Q161.24-30.8 160.39-29.93 159.54-29.05 158.24-29.05ZM163.54 0L153.24 0 153.24-0.8 156.39-2.4 156.39-17.3 153.39-19.9 153.39-20.25 160.09-23 160.39-23 160.39-2.4 163.54-0.8 163.54 0ZM176.58 0.5L176.58 0.5Q174.38 0.5 172.78-0.8 171.18-2.1 171.18-4.45L171.18-4.45 171.18-20.15 167.08-20.15 167.08-20.45 171.33-22.5 174.88-28 175.18-28 175.18-22.5 181.78-22.5 181.78-20.15 175.18-20.15 175.18-5.3Q175.18-4 176.33-3.4 177.48-2.8 179.03-2.8L179.03-2.8Q179.98-2.8 180.81-2.9 181.63-3 182.23-3.15L182.23-3.15 182.38-3.15 182.38-2.65Q181.88-1.5 180.41-0.5 178.93 0.5 176.58 0.5ZM196.98 0L186.28 0 186.28-0.8 189.43-2.4 189.43-31.8 186.43-34.4 186.43-34.75 193.13-37.5 193.43-37.5 193.43-19.3 193.63-19.3Q195.53-21.2 197.31-22.1 199.08-23 201.23-23L201.23-23Q204.18-23 206.06-21.53 207.93-20.05 207.93-17.15L207.93-17.15 207.93-2.4 211.08-0.8 211.08 0 200.38 0 200.38-0.8 203.93-2.25 203.93-14.8Q203.93-17 202.56-18.15 201.18-19.3 198.98-19.3L198.98-19.3Q197.63-19.3 196.01-18.85 194.38-18.4 193.43-17.55L193.43-17.55 193.43-2.25 196.98-0.8 196.98 0ZM237.98 0L227.68 0 227.68-0.8 230.83-2.4 230.83-31.8 227.83-34.4 227.83-34.75 234.53-37.5 234.83-37.5 234.83-2.4 237.98-0.8 237.98 0ZM253.67 0.5L253.67 0.5Q250.37 0.5 247.9-1.05 245.42-2.6 244.05-5.25 242.67-7.9 242.67-11.25L242.67-11.25Q242.67-14.6 244.05-17.25 245.42-19.9 247.9-21.45 250.37-23 253.67-23L253.67-23Q256.97-23 259.45-21.45 261.92-19.9 263.3-17.25 264.67-14.6 264.67-11.25L264.67-11.25Q264.67-7.9 263.3-5.25 261.92-2.6 259.45-1.05 256.97 0.5 253.67 0.5ZM254.37-1.65L254.37-1.65Q256.37-1.65 257.67-2.9 258.97-4.15 259.57-6.13 260.17-8.1 260.17-10.25L260.17-10.25Q260.17-12.9 259.45-15.35 258.72-17.8 257.15-19.35 255.57-20.9 253.07-20.9L253.07-20.9Q251.02-20.9 249.72-19.65 248.42-18.4 247.8-16.45 247.17-14.5 247.17-12.3L247.17-12.3Q247.17-9.65 247.92-7.2 248.67-4.75 250.27-3.2 251.87-1.65 254.37-1.65ZM279.57 0L278.52 0 269.37-20.15 266.02-21.7 266.02-22.5 277.97-22.5 277.97-21.7 273.87-20.2 273.87-19.9 280.27-5.95 280.47-5.95 286.12-19.6 286.12-19.9 282.52-21.7 282.52-22.5 292.32-22.5 292.32-21.7 288.62-19.95 279.57 0ZM304.12 0.5L304.12 0.5Q299.27 0.5 296.47-2.45 293.67-5.4 293.67-10.25L293.67-10.25Q293.67-14 295.14-16.88 296.62-19.75 299.04-21.38 301.47-23 304.32-23L304.32-23Q308.27-23 310.54-20.25 312.82-17.5 312.82-12.35L312.82-12.35 312.57-12.1 297.62-12.1Q297.67-9.8 298.52-7.78 299.37-5.75 301.24-4.5 303.12-3.25 306.27-3.25L306.27-3.25Q309.02-3.25 312.72-5.25L312.72-5.25 312.87-5.25 312.87-4.75Q311.72-2.6 309.44-1.05 307.17 0.5 304.12 0.5ZM303.52-20.8L303.52-20.8Q301.12-20.8 299.59-19.13 298.07-17.45 297.72-14.4L297.72-14.4 309.02-14.4Q308.47-17.8 307.09-19.3 305.72-20.8 303.52-20.8ZM318.42 10.25L318.42 10.25 318.42 9.2Q320.51 8.1 321.47 6.7 322.42 5.3 322.42 3.75L322.42 3.75Q322.42 2.35 321.79 1.43 321.17 0.5 319.92-0.15L319.92-0.15 318.22-1.05 318.06-1.55 319.51-4.05Q319.87-4.6 320.12-4.88 320.37-5.15 320.76-5.15L320.76-5.15Q321.17-5.15 322.01-4.7L322.01-4.7Q323.56-3.8 324.44-2.2 325.31-0.6 325.31 1.25L325.31 1.25Q325.31 3.9 323.72 6.2 322.12 8.5 318.42 10.25ZM352.86 0L342.56 0 342.56-0.8 345.71-2.4 345.71-31.8 342.71-34.4 342.71-34.75 349.41-37.5 349.71-37.5 349.71-2.4 352.86-0.8 352.86 0ZM362.76-29.05L362.76-29.05Q361.46-29.05 360.61-29.93 359.76-30.8 359.76-32.05L359.76-32.05Q359.76-33.35 360.61-34.2 361.46-35.05 362.76-35.05L362.76-35.05Q364.06-35.05 364.91-34.2 365.76-33.35 365.76-32.05L365.76-32.05Q365.76-30.8 364.91-29.93 364.06-29.05 362.76-29.05ZM368.06 0L357.76 0 357.76-0.8 360.91-2.4 360.91-17.3 357.91-19.9 357.91-20.25 364.61-23 364.91-23 364.91-2.4 368.06-0.8 368.06 0ZM383.81 0L373.1 0 373.1-0.8 376.25-2.4 376.25-31.8 373.25-34.4 373.25-34.75 379.95-37.5 380.25-37.5 380.25-12.75 388.31-19.6 388.31-19.9 385.85-21.7 385.85-22.5 395.35-22.5 395.35-21.7 392.15-19.95 383.9-13.6 394-2.5 397.2-0.8 397.2 0 390.6 0 388.7-2.6 380.25-12 380.25-2.25 383.81-0.8 383.81 0ZM411.55 0.5L411.55 0.5Q406.7 0.5 403.9-2.45 401.1-5.4 401.1-10.25L401.1-10.25Q401.1-14 402.58-16.88 404.05-19.75 406.48-21.38 408.9-23 411.75-23L411.75-23Q415.7-23 417.98-20.25 420.25-17.5 420.25-12.35L420.25-12.35 420-12.1 405.05-12.1Q405.1-9.8 405.95-7.78 406.8-5.75 408.68-4.5 410.55-3.25 413.7-3.25L413.7-3.25Q416.45-3.25 420.15-5.25L420.15-5.25 420.3-5.25 420.3-4.75Q419.15-2.6 416.88-1.05 414.6 0.5 411.55 0.5ZM410.95-20.8L410.95-20.8Q408.55-20.8 407.03-19.13 405.5-17.45 405.15-14.4L405.15-14.4 416.45-14.4Q415.9-17.8 414.53-19.3 413.15-20.8 410.95-20.8ZM439.45 12.05L439.45 12.05Q438.3 12.05 438.02 11.73 437.75 11.4 437.75 10.6L437.75 10.6 437.75 8.1 437.95 7.9 440.25 7.9Q441.5 7.9 442.15 7.68 442.8 7.45 443.35 6.53 443.9 5.6 444.9 3.5L444.9 3.5 446.65-0.4 437.5-20.15 434.15-21.7 434.15-22.5 446.1-22.5 446.1-21.7 442-20.15 442-19.9 448.65-5.4 448.8-5.4 454.4-19.6 454.4-19.9 450.65-21.7 450.65-22.5 460.45-22.5 460.45-21.7 456.7-20 446.85 3.95Q446.4 5.1 446.07 5.88 445.75 6.65 445.35 7.38 444.95 8.1 444.2 9.15L444.2 9.15Q443.2 10.6 441.95 11.33 440.7 12.05 439.45 12.05ZM472.79 0.5L472.79 0.5Q469.49 0.5 467.02-1.05 464.54-2.6 463.17-5.25 461.79-7.9 461.79-11.25L461.79-11.25Q461.79-14.6 463.17-17.25 464.54-19.9 467.02-21.45 469.49-23 472.79-23L472.79-23Q476.09-23 478.57-21.45 481.04-19.9 482.42-17.25 483.79-14.6 483.79-11.25L483.79-11.25Q483.79-7.9 482.42-5.25 481.04-2.6 478.57-1.05 476.09 0.5 472.79 0.5ZM473.49-1.65L473.49-1.65Q475.49-1.65 476.79-2.9 478.09-4.15 478.69-6.13 479.29-8.1 479.29-10.25L479.29-10.25Q479.29-12.9 478.57-15.35 477.84-17.8 476.27-19.35 474.69-20.9 472.19-20.9L472.19-20.9Q470.14-20.9 468.84-19.65 467.54-18.4 466.92-16.45 466.29-14.5 466.29-12.3L466.29-12.3Q466.29-9.65 467.04-7.2 467.79-4.75 469.39-3.2 470.99-1.65 473.49-1.65ZM497.54 0.5L497.54 0.5Q494.59 0.5 492.72-0.98 490.84-2.45 490.84-5.35L490.84-5.35 490.84-20.15 487.69-21.7 487.69-22.5 494.84-22.5 494.84-7.7Q494.84-5.5 496.22-4.35 497.59-3.2 499.79-3.2L499.79-3.2Q501.14-3.2 502.77-3.65 504.39-4.1 505.34-4.95L505.34-4.95 505.34-20.15 501.79-21.7 501.79-22.5 509.34-22.5 509.34-2.25 512.89-0.8 512.89 0 505.34 0 505.34-3.15 505.09-3.15Q503.19-1.25 501.42-0.38 499.64 0.5 497.54 0.5ZM527.64 0L516.94 0 516.94-0.8 520.09-2.4 520.09-17.3 517.09-19.9 517.09-20.25 523.29-23 523.59-23 524.04-18.75 524.24-18.75Q525.39-20.6 526.36-21.53 527.34-22.45 528.19-22.73 529.04-23 529.89-23L529.89-23Q530.29-23 530.81-22.85 531.34-22.7 531.69-22.55L531.69-22.55Q532.24-22.3 532.71-21.95 533.19-21.6 533.19-21.15L533.19-21.15Q533.19-20.7 532.99-20.25L532.99-20.25 531.99-17.8 531.64-17.8 529.74-18.55Q529.19-18.8 528.66-18.85 528.14-18.9 527.64-18.9L527.64-18.9Q525.54-18.9 524.09-16.75L524.09-16.75 524.09-2.4 527.64-0.8 527.64 0ZM559.58-7.1L559.58-7.1Q557.38-7.1 555.53-7.9L555.53-7.9Q554.53-7.5 554.11-6.85 553.68-6.2 553.68-5.45L553.68-5.45Q553.68-2.95 557.23-2.95L557.23-2.95 563.23-2.95Q566.88-2.95 568.61-1.35 570.33 0.25 570.33 3.4L570.33 3.4Q570.33 5.55 568.91 7.53 567.48 9.5 564.86 10.75 562.23 12 558.63 12L558.63 12Q553.88 12 551.81 10.28 549.73 8.55 549.73 6.05L549.73 6.05Q549.73 4.2 550.63 2.85L550.63 2.85 554.08 0.55 554.08 0.35Q552.18-0.05 551.18-1.13 550.18-2.2 550.18-3.75L550.18-3.75Q550.18-5.65 551.48-6.95L551.48-6.95 554.18-8.35 554.18-8.65Q552.58-9.7 551.63-11.35 550.68-13 550.68-15.05L550.68-15.05Q550.68-17.3 551.83-19.1 552.98-20.9 555.01-21.95 557.03-23 559.58-23L559.58-23Q560.63-23 561.86-22.75 563.08-22.5 563.98-22.1L563.98-22.1 571.48-22.5 571.48-19.8 566.83-20.1 566.63-19.9Q567.43-19 567.96-17.7 568.48-16.4 568.48-15.05L568.48-15.05Q568.48-12.8 567.33-11 566.18-9.2 564.16-8.15 562.13-7.1 559.58-7.1ZM560.08-9.15L560.08-9.15Q562.08-9.15 563.23-10.88 564.38-12.6 564.38-14.9L564.38-14.9Q564.38-17.65 562.88-19.33 561.38-21 559.23-21L559.23-21Q557.08-21 555.93-19.28 554.78-17.55 554.78-15.2L554.78-15.2Q554.78-12.6 556.28-10.88 557.78-9.15 560.08-9.15ZM553.28 5.5L553.28 5.5Q553.28 7.7 555.01 9.15 556.73 10.6 559.23 10.6L559.23 10.6Q561.48 10.6 563.16 9.73 564.83 8.85 565.76 7.43 566.68 6 566.68 4.4L566.68 4.4Q566.68 2.2 565.51 1.35 564.33 0.5 561.28 0.5L561.28 0.5 555.93 0.5Q555.78 0.5 555.68 0.5L555.68 0.5Q554.33 1.3 553.81 2.53 553.28 3.75 553.28 5.5ZM587.28 0L576.58 0 576.58-0.8 579.73-2.4 579.73-17.3 576.73-19.9 576.73-20.25 582.93-23 583.23-23 583.68-18.75 583.88-18.75Q585.03-20.6 586.01-21.53 586.98-22.45 587.83-22.73 588.68-23 589.53-23L589.53-23Q589.93-23 590.46-22.85 590.98-22.7 591.33-22.55L591.33-22.55Q591.88-22.3 592.36-21.95 592.83-21.6 592.83-21.15L592.83-21.15Q592.83-20.7 592.63-20.25L592.63-20.25 591.63-17.8 591.28-17.8 589.38-18.55Q588.83-18.8 588.31-18.85 587.78-18.9 587.28-18.9L587.28-18.9Q585.18-18.9 583.73-16.75L583.73-16.75 583.73-2.4 587.28-0.8 587.28 0ZM601.63 0.5L601.63 0.5Q599.28 0.5 597.73-0.88 596.18-2.25 596.18-4.7L596.18-4.7Q596.18-7.15 598-8.95 599.83-10.75 604.13-11.75L604.13-11.75 608.88-12.85 608.88-16.5Q608.88-18.2 607.5-19.43 606.13-20.65 604.38-20.65L604.38-20.65Q602.48-20.65 601.73-19.63 600.98-18.6 600.98-16.9L600.98-16.9 600.98-15.5 600.73-15.25 598.13-15.25Q597.38-15.25 597.1-15.5 596.83-15.75 596.83-16.65L596.83-16.65Q596.83-17.75 597.48-18.9 598.13-20.05 599.48-20.9L599.48-20.9Q600.88-21.8 602.4-22.4 603.93-23 605.68-23L605.68-23Q607.43-23 609.1-22.5 610.78-22 611.83-20.83 612.88-19.65 612.88-17.55L612.88-17.55 612.88-3.35Q613.23-3 613.88-2.75 614.53-2.5 615.68-2.5L615.68-2.5 617.58-2.5 617.73-2.4 617.73-2.25Q617.13-1.15 615.95-0.33 614.78 0.5 613.08 0.5L613.08 0.5Q611.53 0.5 610.55-0.33 609.58-1.15 609.18-2.5L609.18-2.5 608.88-2.5Q607.58-1.2 605.65-0.35 603.73 0.5 601.63 0.5ZM600.08-5.7L600.08-5.7Q600.08-2.6 603.83-2.6L603.83-2.6Q605.03-2.6 606.2-2.85 607.38-3.1 608.88-3.75L608.88-3.75 608.88-11.15Q604.88-10.4 603.03-9.58 601.18-8.75 600.63-7.8 600.08-6.85 600.08-5.7ZM631.38 0L620.68 0 620.68-0.8 623.83-2.4 623.83-17.3 620.83-19.9 620.83-20.25 627.03-23 627.33-23 627.78-19.3 628.03-19.3Q629.93-21.2 631.7-22.1 633.48-23 635.63-23L635.63-23Q638.58-23 640.45-21.53 642.33-20.05 642.33-17.15L642.33-17.15 642.33-2.4 645.48-0.8 645.48 0 634.78 0 634.78-0.8 638.33-2.4 638.33-14.8Q638.33-17 636.95-18.15 635.58-19.3 633.38-19.3L633.38-19.3Q632.03-19.3 630.4-18.85 628.78-18.4 627.83-17.55L627.83-17.55 627.83-2.4 631.38-0.8 631.38 0ZM658.27 0.5L658.27 0.5Q655.77 0.5 653.8-0.75 651.82-2 650.7-4.28 649.57-6.55 649.57-9.7L649.57-9.7Q649.57-13.95 651.22-16.93 652.87-19.9 655.62-21.45 658.37-23 661.62-23L661.62-23Q663.02-23 664.07-22.88 665.12-22.75 665.97-22.55L665.97-22.55 665.97-31.8 662.72-34.4 662.72-34.75 669.67-37.5 669.97-37.5 669.97-2.25 673.52-0.8 673.52 0 666.47 0 666.07-2.55 665.72-2.55Q663.82-0.95 662.05-0.23 660.27 0.5 658.27 0.5ZM653.57-10.85L653.57-10.85Q653.57-6.7 655.77-4.83 657.97-2.95 661.02-2.95L661.02-2.95Q662.22-2.95 663.5-3.33 664.77-3.7 665.97-4.45L665.97-4.45 665.97-18.45Q664.77-19.5 663.6-20.03 662.42-20.55 660.97-20.55L660.97-20.55Q658.97-20.55 657.3-19.58 655.62-18.6 654.6-16.48 653.57-14.35 653.57-10.85ZM688.12 0L677.72 0 677.72-0.8 680.87-2.4 680.87-17.3 677.87-19.9 677.87-20.25 684.07-23 684.37-23 684.82-19.3 685.07-19.3Q686.92-21.2 688.65-22.1 690.37-23 692.42-23L692.42-23Q694.82-23 696.52-21.93 698.22-20.85 698.72-18.7L698.72-18.7 698.87-18.7Q700.97-20.9 702.8-21.95 704.62-23 706.82-23L706.82-23Q709.62-23 711.45-21.53 713.27-20.05 713.27-17.15L713.27-17.15 713.27-2.4 716.42-0.8 716.42 0 705.72 0 705.72-0.8 709.27-2.4 709.27-14.8Q709.27-17 707.95-18.15 706.62-19.3 704.57-19.3L704.57-19.3Q702.87-19.3 701.37-18.75 699.87-18.2 698.87-17.1L698.87-17.1 698.87-2.4 702.32-0.8 702.32 0 691.52 0 691.52-0.8 694.87-2.4 694.87-14.8Q694.87-17 693.55-18.15 692.22-19.3 690.17-19.3L690.17-19.3Q688.92-19.3 687.37-18.85 685.82-18.4 684.87-17.55L684.87-17.55 684.87-2.4 688.12-0.8 688.12 0ZM726.12 0.5L726.12 0.5Q723.77 0.5 722.22-0.88 720.67-2.25 720.67-4.7L720.67-4.7Q720.67-7.15 722.49-8.95 724.32-10.75 728.62-11.75L728.62-11.75 733.37-12.85 733.37-16.5Q733.37-18.2 731.99-19.43 730.62-20.65 728.87-20.65L728.87-20.65Q726.97-20.65 726.22-19.63 725.47-18.6 725.47-16.9L725.47-16.9 725.47-15.5 725.22-15.25 722.62-15.25Q721.87-15.25 721.59-15.5 721.32-15.75 721.32-16.65L721.32-16.65Q721.32-17.75 721.97-18.9 722.62-20.05 723.97-20.9L723.97-20.9Q725.37-21.8 726.89-22.4 728.42-23 730.17-23L730.17-23Q731.92-23 733.59-22.5 735.27-22 736.32-20.83 737.37-19.65 737.37-17.55L737.37-17.55 737.37-3.35Q737.72-3 738.37-2.75 739.02-2.5 740.17-2.5L740.17-2.5 742.07-2.5 742.22-2.4 742.22-2.25Q741.62-1.15 740.44-0.33 739.27 0.5 737.57 0.5L737.57 0.5Q736.02 0.5 735.04-0.33 734.07-1.15 733.67-2.5L733.67-2.5 733.37-2.5Q732.07-1.2 730.14-0.35 728.22 0.5 726.12 0.5ZM724.57-5.7L724.57-5.7Q724.57-2.6 728.32-2.6L728.32-2.6Q729.52-2.6 730.69-2.85 731.87-3.1 733.37-3.75L733.37-3.75 733.37-11.15Q729.37-10.4 727.52-9.58 725.67-8.75 725.12-7.8 724.57-6.85 724.57-5.7Z" opacity="1" transform="matrix(1,0,0,1,0,0)" fill="#ffffff" class="slogan-text-1" data-fill-palette-color="secondary" id="text-1"></path></svg></g></svg></g></svg></g></svg></g><g transform="matrix(1,0,0,1,75.54432,0)"><svg viewBox="0 0 244.43135999999998 244.43135999999998" height="244.43135999999998" width="244.43135999999998"><g><svg viewBox="0 0 244.43135999999998 244.43135999999998" height="244.43135999999998" width="244.43135999999998"><g transform="matrix(1,0,0,1,84.57528914389388,64.60265593644992)"><svg viewBox="0 0 75.28078171221222 115.22604812710014" height="115.22604812710014" width="75.28078171221222"><g><svg xmlns="http://www.w3.org/2000/svg" xmlns:xlink="http://www.w3.org/1999/xlink" version="1.1" x="0" y="0" viewBox="24.524000000000004 11.005999999999997 50.952 77.988" enable-background="new 0 0 100 100" xml:space="preserve" height="115.22604812710014" width="75.28078171221222" class="icon-cg-0" data-fill-palette-color="accent" id="cg-0"><g fill="#398378" data-fill-palette-color="accent"><circle cx="45.044" cy="56.547" r="1.3" fill="#ffffff" data-fill-palette-color="accent"></circle><circle cx="54.956" cy="56.547" r="1.3" fill="#ffffff" data-fill-palette-color="accent"></circle><path d="M75.476 44.047c0-10.536-7.584-19.47-17.989-22.421 0.345-0.881 0.542-1.813 0.542-2.776 0-4.325-3.602-7.844-8.029-7.844-4.427 0-8.029 3.519-8.029 7.844 0 0.963 0.197 1.894 0.542 2.776-10.405 2.952-17.989 11.885-17.989 22.421 0 5.054 1.805 9.976 5.069 14.008-0.732 1.223-1.156 2.65-1.156 4.177 0 3.985 2.873 7.312 6.656 8.018v3.837c0 8.22 6.688 14.907 14.907 14.907s14.907-6.688 14.907-14.907V70.25c3.783-0.706 6.656-4.032 6.656-8.018 0-1.526-0.424-2.954-1.157-4.177C73.671 54.022 75.476 49.1 75.476 44.047zM45.48 20.965c-0.335-0.657-0.509-1.375-0.509-2.115 0-2.671 2.256-4.844 5.029-4.844 2.773 0 5.029 2.173 5.029 4.844 0 0.74-0.174 1.458-0.509 2.114-0.026-0.004-0.053-0.005-0.079-0.01-0.696-0.113-1.4-0.202-2.113-0.262-0.06-0.005-0.12-0.008-0.18-0.013-0.709-0.055-1.424-0.09-2.149-0.09-0.726 0-1.442 0.035-2.153 0.09-0.057 0.004-0.114 0.007-0.171 0.012-0.72 0.06-1.43 0.15-2.131 0.265C45.524 20.961 45.502 20.961 45.48 20.965zM45.105 24.085c0.384-0.078 0.769-0.147 1.155-0.206 0.013-0.002 0.026-0.004 0.039-0.006 2.048-0.311 4.122-0.363 6.179-0.155 0.002 0 0.005 0.001 0.007 0.001 0.403 0.041 0.806 0.092 1.208 0.153 0.023 0.003 0.046 0.008 0.069 0.011 0.376 0.058 0.751 0.125 1.125 0.201 10.051 2.037 17.59 10.212 17.59 19.964 0 4.201-1.437 8.316-4.071 11.74-0.047-0.037-0.099-0.065-0.147-0.101-0.151-0.112-0.307-0.217-0.465-0.319-0.08-0.052-0.158-0.107-0.24-0.156-0.229-0.136-0.467-0.258-0.71-0.371-0.09-0.042-0.183-0.079-0.274-0.117-0.183-0.077-0.368-0.148-0.557-0.212-0.089-0.03-0.178-0.061-0.269-0.088-0.273-0.082-0.551-0.154-0.835-0.208v-6.333c0-8.22-6.688-14.907-14.907-14.907s-14.907 6.688-14.907 14.907v6.333c-0.284 0.053-0.562 0.126-0.835 0.208-0.091 0.027-0.179 0.058-0.269 0.088-0.189 0.064-0.375 0.135-0.558 0.212-0.092 0.039-0.184 0.075-0.274 0.117-0.243 0.113-0.481 0.236-0.711 0.372-0.081 0.048-0.158 0.103-0.237 0.154-0.16 0.103-0.318 0.209-0.47 0.323-0.047 0.035-0.098 0.063-0.144 0.099-2.635-3.424-4.071-7.538-4.071-11.74C27.524 34.298 35.058 26.125 45.105 24.085zM63.407 67.388c-0.828 0-1.5 0.672-1.5 1.5v5.198c0 6.565-5.342 11.907-11.907 11.907s-11.907-5.342-11.907-11.907v-5.198c0-0.828-0.671-1.5-1.5-1.5-2.843 0-5.156-2.313-5.156-5.156 0-1.402 0.566-2.672 1.477-3.602 0.018-0.019 0.035-0.039 0.053-0.057 0.212-0.21 0.445-0.399 0.691-0.57 0.035-0.024 0.069-0.049 0.105-0.072 0.245-0.161 0.503-0.303 0.775-0.421 0.041-0.018 0.083-0.034 0.125-0.05 0.277-0.112 0.564-0.205 0.863-0.268 0.032-0.007 0.065-0.01 0.097-0.016 0.315-0.06 0.639-0.098 0.971-0.098 0.829 0 1.5-0.672 1.5-1.5v-7.695c0-6.565 5.342-11.907 11.907-11.907s11.907 5.342 11.907 11.907v7.695c0 0.828 0.672 1.5 1.5 1.5 0.333 0 0.656 0.038 0.972 0.098 0.032 0.006 0.064 0.009 0.096 0.016 0.299 0.063 0.588 0.156 0.866 0.269 0.04 0.016 0.08 0.031 0.12 0.048 0.273 0.119 0.534 0.261 0.78 0.424 0.033 0.022 0.066 0.045 0.099 0.068 0.247 0.172 0.482 0.362 0.695 0.574 0.017 0.017 0.033 0.036 0.05 0.054 0.913 0.931 1.48 2.202 1.48 3.605C68.563 65.075 66.25 67.388 63.407 67.388z" fill="#ffffff" data-fill-palette-color="accent"></path><path d="M54.23 71.615c-0.617 0.617-1.271 1.084-1.942 1.409l-1.36-3.878 2.915-1.415c0.434-0.211 0.74-0.617 0.822-1.093 0.083-0.475-0.068-0.961-0.405-1.306-0.036-0.037-3.631-4.109-2.763-17.354 0.054-0.827-0.572-1.541-1.399-1.595-0.833-0.064-1.541 0.572-1.595 1.398-0.673 10.263 1.171 15.589 2.479 18.002l-2.567 1.247c-0.686 0.333-1.012 1.127-0.76 1.847l1.626 4.634c-1.219-0.179-2.42-0.807-3.511-1.898-0.586-0.586-1.535-0.586-2.121 0s-0.586 1.535 0 2.121c1.899 1.899 4.125 2.85 6.352 2.85s4.452-0.95 6.351-2.85c0.586-0.586 0.586-1.535 0-2.121S54.816 71.029 54.23 71.615z" fill="#ffffff" data-fill-palette-color="accent"></path></g></svg></g></svg></g><g id="text-0"><path d="M34.314 88.115v0c0.88-2.154 0.99-3.963 0.33-5.424-0.657-1.468-2.035-2.631-4.135-3.489v0l-2.278-0.93-2.103 2.868-1.897-0.774 4.313-10.565 1.898 0.774-0.506 3.521 10.937 4.466-0.96 2.351-3.393-0.274c0.772 1.586 1.178 3.072 1.219 4.459 0.039 1.392-0.268 2.887-0.921 4.485v0c-1.416 3.467-3.612 5.804-6.59 7.009v0c-1.66 0.678-3.537 0.967-5.628 0.869-2.086-0.096-4.23-0.594-6.432-1.494v0c-2.251-0.919-4.208-2.11-5.87-3.572-1.662-1.462-2.88-3.061-3.655-4.796v0c-0.667-1.479-0.987-3.029-0.96-4.649 0.024-1.614 0.402-3.32 1.136-5.117v0c0.62-1.519 1.368-2.71 2.243-3.575 0.872-0.873 2.031-1.56 3.479-2.063v0l-2.209-1.877 1.008-2.468 8.586 3.505-1.1 2.696c-2.3-0.523-4.287-0.395-5.96 0.384-1.679 0.776-2.953 2.226-3.82 4.349v0c-0.506 1.24-0.729 2.364-0.667 3.371 0.064 1.001 0.391 1.974 0.979 2.92v0c0.776 1.143 1.875 2.255 3.297 3.337 1.416 1.079 3.038 1.992 4.865 2.738v0c1.846 0.754 3.663 1.238 5.453 1.454 1.784 0.213 3.401 0.143 4.852-0.211v0c1.052-0.277 1.941-0.761 2.669-1.452 0.73-0.698 1.337-1.639 1.82-2.825z" fill="#ffffff" data-fill-palette-color="accent"></path><path d="M38.412 49.208v0c-0.095 0.032-0.181 0.075-0.259 0.129-0.088 0.055-0.167 0.125-0.239 0.21v0c-0.192 0.231-0.281 0.599-0.266 1.104 0.005 0.505 0.088 1.046 0.248 1.62 0.156 0.58 0.378 1.146 0.666 1.699v0c0.473 0.894 1.05 1.764 1.732 2.611 0.678 0.851 1.499 1.678 2.465 2.479v0l5.59 4.641 3.434-2.909 1.448 1.202-7.652 9.218-1.449-1.202 1.413-2.93-13.095-10.871-2.62 1.928-1.298-1.077 4.039-4.866 4.748 2.769 0.1-0.121c-1.028-1.678-1.592-3.25-1.691-4.716-0.094-1.463 0.27-2.689 1.093-3.68v0c0.68-0.82 1.505-1.291 2.473-1.413 0.973-0.118 1.89 0.18 2.749 0.893v0c0.634 0.526 1.013 1.138 1.139 1.837 0.134 0.698-0.043 1.341-0.532 1.929v0c-0.539 0.649-1.127 0.984-1.765 1.006-0.638 0.022-1.222-0.186-1.75-0.624v0c-0.126-0.104-0.237-0.205-0.334-0.303-0.097-0.098-0.226-0.285-0.387-0.563z" fill="#ffffff" data-fill-palette-color="accent"></path><path d="M57.981 50.574v0c-1.265-1.779-1.43-3.759-0.494-5.941 0.939-2.176 3.072-4.867 6.398-8.073v0c-0.977-1.182-1.791-2.063-2.444-2.642-0.643-0.577-1.246-1.003-1.809-1.275v0c-0.685-0.355-1.386-0.494-2.102-0.419-0.721 0.08-1.404 0.349-2.049 0.807v0c-0.581 0.413-1.031 0.89-1.352 1.431-0.317 0.546-0.426 1.053-0.327 1.52v0c0.458-0.021 0.877 0.094 1.256 0.346 0.376 0.246 0.668 0.516 0.876 0.808v0c0.394 0.554 0.518 1.151 0.372 1.793-0.151 0.645-0.528 1.181-1.129 1.609v0c-0.575 0.409-1.188 0.552-1.837 0.428-0.644-0.128-1.195-0.514-1.654-1.158v0c-0.667-0.938-0.906-1.962-0.718-3.074 0.186-1.103 0.661-2.178 1.424-3.226 0.772-1.046 1.659-1.925 2.66-2.637v0c0.959-0.682 1.935-1.159 2.927-1.432 0.998-0.277 1.938-0.359 2.819-0.248v0c2.527 0.385 5.027 2.316 7.501 5.794v0l3.329 4.683c0.776 1.092 1.388 1.8 1.835 2.123 0.443 0.319 0.91 0.304 1.4-0.044v0l1.51-1.074 0.829 1.166c-1.28 1.888-2.399 3.173-3.358 3.856v0c-0.687 0.489-1.334 0.572-1.94 0.248-0.601-0.327-1.409-1.204-2.424-2.631v0l-0.128 0.091c0.114 1.627-0.167 3.166-0.843 4.618-0.678 1.46-1.675 2.658-2.991 3.594v0c-1.401 0.996-2.773 1.402-4.114 1.217-1.346-0.19-2.487-0.943-3.423-2.258zM65.657 48.34v0c0.559-0.398 1.048-0.985 1.464-1.763 0.419-0.787 0.65-1.617 0.695-2.491v0c0.052-0.638-0.046-1.323-0.293-2.053-0.252-0.727-0.672-1.503-1.259-2.329v0c-0.239-0.336-0.495-0.674-0.77-1.016-0.271-0.336-0.55-0.655-0.837-0.957v0c-1.461 1.576-2.535 2.909-3.22 3.998-0.685 1.089-1.034 2.059-1.047 2.91-0.018 0.855 0.257 1.682 0.825 2.48v0c0.682 0.959 1.421 1.524 2.217 1.696 0.796 0.172 1.537 0.014 2.225-0.475z" fill="#ffffff" data-fill-palette-color="accent"></path><path d="M81.369 38.871l2.741-1.752-5.375-15.942-3.239 0.274-0.604-1.793 5.992-2.02 2.167 3.604 0.149-0.05c0.334-1.589 1.031-2.986 2.094-4.192 1.069-1.209 2.352-2.066 3.851-2.572v0c2.155-0.727 3.986-0.565 5.492 0.487v0c0.765 0.549 1.476 1.441 2.133 2.674 0.664 1.232 1.371 2.962 2.123 5.192v0l2.832 8.399 3.242-0.265 0.601 1.783-9.755 3.289-0.601-1.784 2.351-1.62-2.791-8.278c-0.551-1.635-1.012-2.859-1.383-3.672-0.377-0.811-0.766-1.421-1.166-1.831v0c-0.504-0.554-1.085-0.886-1.743-0.996-0.658-0.109-1.361-0.038-2.11 0.215v0c-1.425 0.48-2.505 1.348-3.241 2.603v0c-0.727 1.342-0.802 3.043-0.224 5.104v0l3.367 9.988 2.862-0.137 0.601 1.783-9.764 3.292z" fill="#ffffff" data-fill-palette-color="accent"></path><path d="M111.026 21.372v0c-0.026-1.804 0.188-3.51 0.642-5.118 0.454-1.608 1.125-2.909 2.013-3.902v0c0.785-0.887 1.719-1.564 2.804-2.031 1.091-0.467 2.346-0.71 3.765-0.731v0c1.229-0.018 2.34 0.198 3.333 0.648 0.994 0.45 1.894 1.27 2.703 2.462v0l-0.144-9.97-3.168-0.729-0.027-1.892 7.548-0.109 0.423 29.331 3.168 0.739 0.027 1.882-6.758 0.509-0.382-3.357c-0.831 1.267-1.776 2.157-2.834 2.668-1.058 0.506-2.257 0.768-3.597 0.788v0c-1.425 0.021-2.686-0.174-3.783-0.583-1.098-0.409-2.022-1.046-2.774-1.911v0c-0.865-1.027-1.569-2.288-2.113-3.784-0.538-1.496-0.82-3.132-0.846-4.91zM126.407 21.15v0c-0.024-1.64-0.168-3.067-0.434-4.279-0.259-1.219-0.613-2.178-1.061-2.877v0c-0.448-0.68-0.988-1.198-1.621-1.555-0.639-0.363-1.449-0.538-2.429-0.524v0c-0.823 0.012-1.583 0.18-2.278 0.504-0.688 0.324-1.233 0.819-1.635 1.484v0c-0.454 0.686-0.774 1.649-0.959 2.887-0.191 1.232-0.276 2.612-0.254 4.141v0c0.024 1.64 0.168 3.06 0.434 4.259 0.259 1.206 0.6 2.175 1.023 2.908v0c0.448 0.673 1.004 1.198 1.67 1.574 0.659 0.37 1.453 0.548 2.38 0.534v0c0.85-0.012 1.615-0.174 2.298-0.484 0.675-0.31 1.201-0.795 1.577-1.454v0c0.427-0.745 0.753-1.72 0.977-2.927 0.231-1.206 0.335-2.603 0.312-4.191z" fill="#ffffff" data-fill-palette-color="accent"></path><path d="M139.3 31.262l3.229 0.391 5.989-15.722-2.674-1.848 0.673-1.768 5.91 2.251-0.62 4.16 0.147 0.056c1.231-0.993 2.614-1.638 4.147-1.935 1.531-0.291 2.999-0.169 4.403 0.366v0c1.044 0.398 1.901 0.948 2.571 1.651 0.667 0.709 1.08 1.433 1.24 2.171v0c0.167 0.791 0.179 1.761 0.035 2.909v0c1.365-1.124 2.853-1.844 4.463-2.16 1.613-0.323 3.161-0.202 4.646 0.364v0c1.02 0.389 1.865 0.934 2.534 1.637 0.667 0.709 1.086 1.491 1.257 2.346v0c0.125 0.607 0.131 1.326 0.018 2.157-0.116 0.837-0.366 1.878-0.75 3.124-0.387 1.237-0.937 2.79-1.649 4.66v0l-2.628 6.899 2.681 1.86-0.671 1.759-9.629-3.668 0.67-1.759 2.854 0.248 3.11-8.163c0.633-1.661 1.059-2.919 1.279-3.773 0.22-0.853 0.304-1.552 0.253-2.096v0c-0.046-0.724-0.27-1.33-0.671-1.819-0.401-0.489-0.92-0.854-1.555-1.096v0c-0.641-0.244-1.299-0.362-1.974-0.353-0.672 0.003-1.336 0.128-1.989 0.375v0c-0.757 0.299-1.402 0.742-1.934 1.331-0.532 0.588-1.022 1.398-1.471 2.429v0l-3.752 9.849 2.286 1.711-0.67 1.759-9.235-3.518 0.67-1.759 2.845 0.244 3.109-8.163c0.633-1.661 1.059-2.919 1.28-3.773 0.226-0.851 0.311-1.55 0.253-2.096v0c-0.046-0.724-0.27-1.33-0.671-1.819-0.395-0.486-0.914-0.852-1.555-1.096v0c-0.641-0.244-1.299-0.362-1.974-0.353-0.672 0.003-1.336 0.128-1.99 0.375v0c-0.757 0.299-1.402 0.742-1.933 1.331-0.526 0.59-1.016 1.4-1.472 2.429v0l-3.751 9.849 2.295 1.714-0.67 1.759-9.629-3.668z" fill="#ffffff" data-fill-palette-color="accent"></path><path d="M180.829 46.108v0c1.45-1.632 3.343-2.237 5.678-1.815 2.331 0.427 5.432 1.902 9.303 4.424v0c0.933-1.217 1.608-2.208 2.026-2.974 0.418-0.756 0.698-1.439 0.837-2.049v0c0.192-0.747 0.171-1.462-0.064-2.142-0.239-0.685-0.655-1.29-1.246-1.816v0c-0.533-0.473-1.098-0.806-1.698-0.997-0.604-0.187-1.122-0.179-1.554 0.022v0c0.123 0.442 0.105 0.876-0.055 1.302-0.156 0.421-0.353 0.766-0.592 1.035v0c-0.452 0.508-1.006 0.763-1.663 0.765-0.662-0.003-1.269-0.249-1.822-0.74v0c-0.528-0.469-0.804-1.034-0.829-1.694-0.02-0.656 0.232-1.28 0.758-1.871v0c0.764-0.86 1.709-1.323 2.835-1.39 1.117-0.066 2.271 0.155 3.463 0.664 1.193 0.518 2.248 1.185 3.166 2.001v0c0.879 0.781 1.564 1.625 2.053 2.532 0.494 0.911 0.785 1.808 0.874 2.691v0c0.192 2.549-1.129 5.419-3.965 8.609v0l-3.816 4.295c-0.89 1.002-1.443 1.756-1.658 2.265-0.211 0.503-0.092 0.955 0.358 1.354v0l1.385 1.23-0.951 1.07c-2.127-0.824-3.631-1.626-4.51-2.407v0c-0.63-0.56-0.856-1.172-0.678-1.835 0.183-0.659 0.857-1.643 2.02-2.953v0l-0.117-0.104c-1.56 0.476-3.123 0.548-4.689 0.214-1.575-0.333-2.966-1.036-4.173-2.108v0c-1.285-1.142-1.988-2.387-2.109-3.737-0.117-1.354 0.361-2.635 1.433-3.841zM184.727 53.086v0c0.513 0.456 1.195 0.8 2.047 1.032 0.861 0.232 1.722 0.271 2.583 0.119v0c0.633-0.093 1.278-0.342 1.935-0.746 0.652-0.409 1.314-0.992 1.988-1.75v0c0.274-0.308 0.546-0.634 0.817-0.978 0.267-0.34 0.515-0.683 0.745-1.031v0c-1.864-1.071-3.404-1.818-4.619-2.241-1.215-0.424-2.238-0.546-3.07-0.367-0.837 0.174-1.581 0.628-2.233 1.36v0c-0.781 0.879-1.167 1.726-1.155 2.541 0.011 0.814 0.332 1.501 0.962 2.061z" fill="#ffffff" data-fill-palette-color="accent"></path><path d="M197.708 66.477l2.47 2.117 21.725-15.465-1.2-3.021 1.541-1.097 4.378 6.15-23.897 17.012 1.192 3.026-1.534 1.092-6.209-8.722z" fill="#ffffff" data-fill-palette-color="accent"></path><path d="M232.269 94.978l-1.637-2.042-19.691 0.522c-2.258 0.012-4.115-0.057-5.572-0.206-1.448-0.146-2.589-0.49-3.421-1.033-0.83-0.537-1.475-1.389-1.935-2.557v0c-0.472-1.198-0.557-2.348-0.254-3.451 0.297-1.101 0.929-1.841 1.895-2.223v0c0.766-0.302 1.489-0.331 2.169-0.085 0.686 0.243 1.169 0.72 1.449 1.431v0c0.252 0.638 0.289 1.196 0.112 1.673-0.181 0.486-0.575 0.849-1.183 1.089v0c-0.304 0.12-0.676 0.165-1.117 0.134-0.437-0.039-0.816-0.198-1.137-0.479v0c-0.236 0.149-0.347 0.368-0.331 0.658 0.009 0.291 0.049 0.525 0.118 0.701v0c0.141 0.359 0.354 0.658 0.638 0.897 0.284 0.239 0.768 0.424 1.452 0.556 0.681 0.125 1.689 0.16 3.024 0.104v0l1.593-0.101 15.313-15.078-0.182-2.574 1.76-0.694 3.524 8.939-1.642 0.995-1.789-2.425-12.286 11.019 0.058 0.146 16.216-1.05-0.153-2.5 1.76-0.694 3.01 7.634z" fill="#ffffff" data-fill-palette-color="accent"></path><path d="M18.398 172.952v0c0.977 2.319 2.279 3.785 3.906 4.397 1.623 0.621 3.571 0.453 5.842-0.504v0l2.457-1.035-0.592-3.804 2.042-0.861 4.8 11.393-2.041 0.861-2.309-3.081-11.8 4.972-1.069-2.539 2.8-2.393c-1.802-0.624-3.25-1.45-4.343-2.479-1.096-1.035-2.006-2.414-2.732-4.136v0c-1.576-3.74-1.692-7.213-0.347-10.418v0c0.761-1.796 1.976-3.457 3.645-4.983 1.672-1.52 3.697-2.781 6.077-3.784v0c2.427-1.023 4.838-1.613 7.233-1.771 2.395-0.158 4.549 0.133 6.463 0.872v0c1.644 0.619 3.078 1.558 4.304 2.815 1.216 1.254 2.233 2.85 3.05 4.79v0c0.69 1.638 1.036 3.124 1.037 4.456 0.001 1.333-0.36 2.748-1.084 4.245v0l3.127-0.254 1.12 2.656-9.261 3.902-1.226-2.909c2.165-1.359 3.59-2.977 4.274-4.854 0.688-1.886 0.548-3.976-0.419-6.271v0c-0.563-1.337-1.254-2.362-2.072-3.074-0.814-0.721-1.812-1.219-2.991-1.495v0c-1.467-0.283-3.159-0.293-5.078-0.031-1.912 0.26-3.853 0.804-5.822 1.634v0c-1.994 0.84-3.756 1.867-5.288 3.079-1.528 1.204-2.711 2.497-3.547 3.878v0c-0.597 1.025-0.907 2.081-0.931 3.169-0.026 1.082 0.232 2.268 0.775 3.557z" fill="#ffffff" data-fill-palette-color="accent"></path><path d="M52.948 193.486v0c-0.014-0.108-0.043-0.212-0.085-0.313-0.043-0.101-0.102-0.196-0.178-0.287v0c-0.211-0.25-0.587-0.415-1.127-0.497-0.54-0.091-1.132-0.104-1.778-0.037-0.645 0.057-1.293 0.186-1.945 0.387v0c-1.034 0.336-2.069 0.787-3.105 1.354-1.035 0.558-2.073 1.278-3.116 2.161v0l-6.004 5.077 2.459 4.213-1.565 1.323-8.382-9.911 1.564-1.324 2.854 2.069 14.08-11.909-1.565-3.157 1.392-1.178 4.419 5.225-3.843 4.535 0.114 0.134c1.976-0.781 3.757-1.084 5.342-0.91 1.581 0.178 2.82 0.799 3.719 1.863v0c0.747 0.883 1.093 1.854 1.037 2.911-0.056 1.057-0.548 1.979-1.476 2.763v0c-0.679 0.574-1.401 0.864-2.167 0.87-0.771 0.01-1.424-0.302-1.96-0.936v0c-0.591-0.699-0.839-1.392-0.744-2.08 0.104-0.687 0.438-1.269 1.001-1.746v0c0.135-0.114 0.264-0.214 0.387-0.302 0.127-0.082 0.351-0.182 0.672-0.298z" fill="#ffffff" data-fill-palette-color="accent"></path><path d="M50.145 212.889v0c1.368-1.938 3.332-2.82 5.889-2.646 2.563 0.177 6.079 1.391 10.547 3.642v0c0.861-1.424 1.473-2.573 1.833-3.447 0.357-0.868 0.573-1.639 0.649-2.314v0c0.111-0.826 0-1.592-0.332-2.299-0.333-0.707-0.852-1.309-1.557-1.807v0c-0.63-0.445-1.28-0.732-1.949-0.86-0.669-0.129-1.225-0.061-1.667 0.203v0c0.187 0.46 0.219 0.931 0.095 1.411-0.12 0.476-0.291 0.871-0.513 1.186v0c-0.426 0.603-0.993 0.947-1.701 1.032-0.709 0.075-1.39-0.117-2.041-0.577v0c-0.63-0.445-0.996-1.02-1.099-1.724-0.099-0.71 0.099-1.415 0.593-2.114v0c0.716-1.014 1.676-1.625 2.878-1.833 1.193-0.206 2.463-0.105 3.808 0.301 1.346 0.406 2.563 0.994 3.652 1.763v0c1.041 0.735 1.88 1.564 2.518 2.485 0.637 0.922 1.06 1.853 1.269 2.792v0c0.506 2.717-0.574 5.964-3.239 9.739v0l-3.591 5.086c-0.837 1.185-1.337 2.064-1.502 2.636-0.169 0.569 0.013 1.041 0.547 1.418v0l1.634 1.154-0.899 1.273c-2.384-0.635-4.097-1.32-5.138-2.055v0c-0.748-0.528-1.062-1.158-0.945-1.891 0.118-0.733 0.723-1.874 1.816-3.423v0l-0.144-0.101c-1.618 0.706-3.296 0.974-5.032 0.803-1.727-0.171-3.304-0.76-4.729-1.767v0c-1.527-1.078-2.435-2.336-2.725-3.772-0.29-1.437 0.069-2.868 1.075-4.294zM55.185 219.928v0c0.603 0.426 1.382 0.712 2.335 0.857 0.948 0.141 1.878 0.082 2.79-0.178v0c0.672-0.181 1.334-0.53 1.987-1.046 0.652-0.516 1.295-1.222 1.928-2.119v0c0.256-0.363 0.511-0.747 0.765-1.152 0.245-0.403 0.471-0.803 0.68-1.2v0c-2.135-0.931-3.883-1.549-5.244-1.854-1.357-0.31-2.475-0.319-3.353-0.028-0.875 0.287-1.619 0.865-2.234 1.736v0c-0.735 1.041-1.048 2-0.939 2.877 0.104 0.873 0.532 1.576 1.285 2.107z" fill="#ffffff" data-fill-palette-color="accent"></path><path d="M74.465 231.934l3.512 0.293 5.813-17.263-2.973-1.891 0.654-1.942 6.485 2.184-0.488 4.522 0.167 0.056c1.324-1.147 2.842-1.895 4.552-2.243 1.715-0.34 3.383-0.237 5.006 0.31v0c2.335 0.786 3.809 2.124 4.421 4.013v0c0.299 0.977 0.327 2.214 0.085 3.712-0.236 1.5-0.761 3.458-1.574 5.873v0l-3.064 9.097 2.974 1.891-0.654 1.942-10.574-3.561 0.654-1.942 3.094 0.152 3.019-8.966c0.597-1.772 0.999-3.129 1.207-4.074 0.21-0.95 0.277-1.734 0.202-2.352v0c-0.074-0.804-0.357-1.469-0.849-1.993-0.499-0.527-1.154-0.926-1.965-1.2v0c-1.542-0.519-3.042-0.48-4.499 0.119v0c-1.513 0.684-2.693 2.1-3.542 4.249v0l-3.645 10.825 2.555 1.75-0.654 1.942-10.573-3.561z" fill="#ffffff" data-fill-palette-color="accent"></path><path d="M110.094 231.894v0c0.031-1.954 0.318-3.793 0.861-5.517 0.55-1.724 1.32-3.114 2.311-4.17v0c0.877-0.934 1.912-1.637 3.102-2.109 1.19-0.465 2.557-0.686 4.099-0.661v0c1.333 0.021 2.529 0.291 3.586 0.811 1.057 0.52 2.007 1.437 2.849 2.751v0l0.169-10.793-3.408-0.897 0.032-2.049 8.176 0.128-0.497 31.772 3.408 0.896-0.032 2.049-7.339 0.326-0.296-3.642c-0.943 1.345-1.997 2.276-3.162 2.794-1.159 0.511-2.463 0.756-3.914 0.733v0c-1.542-0.024-2.905-0.274-4.087-0.75-1.176-0.476-2.155-1.194-2.938-2.154v0c-0.904-1.145-1.624-2.536-2.16-4.172-0.537-1.636-0.79-3.418-0.76-5.346zM126.759 232.155v0c0.028-1.778-0.082-3.329-0.329-4.653-0.247-1.318-0.6-2.366-1.059-3.145v0c-0.465-0.752-1.035-1.333-1.708-1.742-0.673-0.409-1.543-0.622-2.608-0.639v0c-0.889-0.014-1.715 0.143-2.478 0.471-0.763 0.328-1.373 0.845-1.829 1.55v0c-0.515 0.731-0.894 1.761-1.137 3.09-0.243 1.33-0.378 2.825-0.403 4.485v0c-0.028 1.778 0.082 3.322 0.329 4.633 0.248 1.305 0.587 2.362 1.02 3.173v0c0.459 0.746 1.041 1.33 1.747 1.754 0.706 0.429 1.562 0.652 2.568 0.667v0c0.921 0.014 1.754-0.136 2.498-0.451 0.744-0.315 1.33-0.826 1.759-1.531v0c0.483-0.79 0.869-1.833 1.157-3.13 0.288-1.303 0.446-2.814 0.473-4.532z" fill="#ffffff" data-fill-palette-color="accent"></path><path d="M144.983 239.858l2.892-2.014-6.534-17.004-3.496 0.44-0.735-1.913 6.388-2.454 2.508 3.794 0.165-0.063c0.276-1.688 0.922-3.204 1.939-4.548 1.023-1.345 2.298-2.311 3.823-2.897v0c1.135-0.436 2.227-0.61 3.276-0.523 1.049 0.087 1.903 0.368 2.561 0.843v0c0.707 0.527 1.418 1.304 2.135 2.331v0c0.289-1.89 0.969-3.548 2.038-4.974 1.069-1.426 2.407-2.448 4.011-3.064v0c1.104-0.424 2.181-0.593 3.23-0.506 1.049 0.087 1.952 0.416 2.71 0.986v0c0.537 0.396 1.063 0.971 1.577 1.726 0.508 0.757 1.057 1.775 1.646 3.054 0.589 1.279 1.272 2.928 2.048 4.948v0l2.87 7.468 3.496-0.44 0.735 1.912-10.415 4.002-0.735-1.913 2.471-1.852-3.394-8.832c-0.692-1.8-1.253-3.125-1.684-3.974-0.438-0.847-0.877-1.473-1.32-1.877v0c-0.558-0.542-1.177-0.868-1.856-0.978-0.671-0.106-1.354-0.026-2.05 0.242v0c-0.689 0.265-1.303 0.644-1.842 1.138-0.538 0.494-0.983 1.078-1.333 1.751v0c-0.391 0.787-0.589 1.609-0.597 2.467-0.007 0.857 0.18 1.863 0.562 3.019v0l4.096 10.662 3.085-0.282 0.735 1.913-9.994 3.84-0.735-1.913 2.471-1.853-3.394-8.831c-0.692-1.8-1.256-3.123-1.693-3.971-0.431-0.85-0.868-1.476-1.311-1.88v0c-0.558-0.542-1.177-0.868-1.856-0.978-0.671-0.106-1.354-0.026-2.05 0.241v0c-0.689 0.265-1.303 0.644-1.842 1.139-0.545 0.496-0.989 1.08-1.333 1.751v0c-0.391 0.787-0.589 1.609-0.597 2.466-0.007 0.857 0.18 1.863 0.562 3.02v0l4.096 10.662 3.085-0.282 0.735 1.912-10.415 4.002z" fill="#ffffff" data-fill-palette-color="accent"></path><path d="M189.414 216.768v0c-1.586-1.765-2.01-3.875-1.273-6.33 0.742-2.46 2.707-5.618 5.893-9.474v0c-1.197-1.156-2.182-2.007-2.953-2.553-0.767-0.541-1.471-0.923-2.111-1.147v0c-0.781-0.292-1.552-0.354-2.316-0.186-0.763 0.168-1.466 0.54-2.108 1.116v0c-0.574 0.516-0.997 1.085-1.271 1.71-0.274 0.624-0.331 1.181-0.173 1.67v0c0.49-0.08 0.956-0.007 1.398 0.221 0.437 0.222 0.784 0.477 1.042 0.764v0c0.494 0.549 0.703 1.178 0.628 1.887-0.084 0.708-0.423 1.329-1.016 1.862v0c-0.574 0.516-1.215 0.745-1.925 0.688-0.714-0.061-1.357-0.41-1.929-1.047v0c-0.83-0.924-1.213-1.995-1.148-3.213 0.065-1.209 0.444-2.425 1.139-3.646 0.695-1.222 1.538-2.278 2.53-3.17v0c0.948-0.852 1.942-1.486 2.982-1.903 1.04-0.417 2.042-0.622 3.005-0.617v0c2.762 0.11 5.687 1.884 8.775 5.321v0l4.162 4.631c0.97 1.079 1.716 1.762 2.237 2.049 0.517 0.291 1.018 0.219 1.504-0.218v0l1.488-1.337 1.042 1.16c-1.149 2.183-2.197 3.701-3.145 4.553v0c-0.681 0.612-1.365 0.779-2.054 0.501-0.689-0.277-1.667-1.121-2.934-2.531v0l-0.131 0.118c0.329 1.735 0.217 3.43-0.334 5.085-0.551 1.646-1.475 3.052-2.773 4.219v0c-1.39 1.249-2.818 1.856-4.283 1.819-1.465-0.037-2.781-0.704-3.948-2.002zM197.396 213.418v0c0.549-0.494 1.001-1.189 1.354-2.087 0.349-0.893 0.497-1.813 0.446-2.76v0c-0.028-0.696-0.22-1.419-0.578-2.169-0.358-0.75-0.904-1.534-1.638-2.351v0c-0.297-0.331-0.615-0.665-0.953-1.002-0.339-0.328-0.679-0.638-1.02-0.929v0c-1.382 1.875-2.373 3.442-2.972 4.701-0.604 1.254-0.861 2.342-0.771 3.263 0.085 0.916 0.484 1.771 1.196 2.563v0c0.852 0.948 1.718 1.466 2.597 1.555 0.874 0.093 1.654-0.169 2.339-0.784z" fill="#ffffff" data-fill-palette-color="accent"></path><path d="M212.867 198.235l1.307-3.273-23.479-16.821-2.678 2.291-1.666-1.194 4.762-6.647 25.831 18.505 2.678-2.29 1.665 1.193-6.754 9.429z" fill="#ffffff" data-fill-palette-color="accent"></path><path d="M214.488 151.03l-0.236 2.824 15.823 14.297c1.779 1.682 3.186 3.124 4.222 4.328 1.029 1.201 1.667 2.324 1.912 3.369 0.248 1.039 0.115 2.191-0.398 3.457v0c-0.524 1.29-1.315 2.256-2.373 2.899-1.058 0.643-2.111 0.751-3.159 0.326v0c-0.824-0.334-1.41-0.855-1.758-1.56-0.357-0.702-0.379-1.438-0.067-2.207v0c0.278-0.684 0.668-1.15 1.171-1.398 0.494-0.244 1.071-0.232 1.731 0.036v0c0.333 0.135 0.658 0.377 0.976 0.725 0.321 0.356 0.5 0.767 0.536 1.233v0c0.295 0.056 0.547-0.035 0.757-0.275 0.208-0.233 0.351-0.447 0.429-0.64v0c0.155-0.382 0.209-0.776 0.163-1.183-0.043-0.398-0.286-0.903-0.729-1.513-0.437-0.608-1.199-1.39-2.286-2.346v0l-1.318-1.106-23.275 0.38-1.784 2.154-1.899-0.771 3.914-9.638 2.031 0.444-0.406 3.242 17.866 0.535 0.067-0.164-13.5-11.29-1.751 2.072-1.899-0.771 3.342-8.23z" fill="#ffffff" data-fill-palette-color="accent"></path><path d="M4.932 126.53c0-6.751 5.473-12.224 12.225-12.225 6.751 0 12.224 5.473 12.224 12.225 0 6.751-5.473 12.224-12.224 12.224-6.751 0-12.224-5.473-12.225-12.224z" fill="#ffffff" data-fill-palette-color="accent"></path><path d="M215.05 126.53c0-6.751 5.473-12.224 12.225-12.225 6.751 0 12.224 5.473 12.224 12.225 0 6.751-5.473 12.224-12.224 12.224-6.751 0-12.224-5.473-12.225-12.224z" fill="#ffffff" data-fill-palette-color="accent"></path></g><g id="text-1"></g></svg></g></svg></g><g></g></svg></g><defs></defs></svg><rect width="250.43929752396164" height="247.2" fill="none" stroke="none" visibility="hidden"></rect></g></svg></g></svg>