<svg xmlns="http://www.w3.org/2000/svg" version="1.1" xmlns:xlink="http://www.w3.org/1999/xlink" xmlns:svgjs="http://svgjs.dev/svgjs" width="1500" height="1500" viewBox="0 0 1500 1500"><rect width="1500" height="1500" fill="#ffffff"></rect><g transform="matrix(0.6666666666666666,0,0,0.6666666666666666,249.39393939393938,660.6267277360053)"><svg viewBox="0 0 396 71" data-background-color="#ffffff" preserveAspectRatio="xMidYMid meet" height="268" width="1500" xmlns="http://www.w3.org/2000/svg" xmlns:xlink="http://www.w3.org/1999/xlink"><g id="tight-bounds" transform="matrix(1,0,0,1,0.2400000000000091,0.015871254162050263)"><svg viewBox="0 0 395.52 70.96825749167591" height="70.96825749167591" width="395.52"><g><svg viewBox="0 0 395.52 70.96825749167591" height="70.96825749167591" width="395.52"><g><svg viewBox="0 0 395.52 70.96825749167591" height="70.96825749167591" width="395.52"><g id="textblocktransform"><svg viewBox="0 0 395.52 70.96825749167591" height="70.96825749167591" width="395.52" id="textblock"><g><svg viewBox="0 0 395.52 70.96825749167591" height="70.96825749167591" width="395.52"><g transform="matrix(1,0,0,1,0,0)"><svg width="395.52" viewBox="2.5 -39 270.28 48.5" height="70.96825749167591" data-palette-color="#398378"><path d="M18.8-3L18.8-3Q23.05-3 25.08-5.13 27.1-7.25 27.1-11.4L27.1-11.4 27.1-14.4 22.9-15.45 22.9-17.95 36.8-17.95 36.8-15.45 32.6-14.4 32.6 0 29.5 0 28.25-3.95Q26.1-1.55 23.78-0.53 21.45 0.5 18.3 0.5L18.3 0.5Q11.45 0.5 7.35-3.7L7.35-3.7Q5.05-6.05 3.78-9.65 2.5-13.25 2.5-17.6L2.5-17.6Q2.5-22.05 3.83-25.88 5.15-29.7 7.55-32.2L7.55-32.2Q9.6-34.35 12.35-35.43 15.1-36.5 18.65-36.5L18.65-36.5Q21.65-36.5 23.73-35.63 25.8-34.75 27.65-32.65L27.65-32.65 28.75-36 32-36 32-24.7 28.45-24.7Q27.75-28.95 25.28-31.25 22.8-33.55 18.6-33.55L18.6-33.55Q16.15-33.55 14.5-32.75 12.85-31.95 11.65-30.3L11.65-30.3Q10.25-28.2 9.4-25.05 8.55-21.9 8.55-18.3L8.55-18.3Q8.55-14.65 9.43-11.48 10.3-8.3 11.9-6.1L11.9-6.1Q13.1-4.5 14.78-3.75 16.45-3 18.8-3ZM54.6-23.85L54.6-23.85Q54.45-23.95 54.27-24 54.1-24.05 53.9-24.05L53.9-24.05Q53.35-24.05 52.65-23.45 51.95-22.85 51.32-21.95 50.7-21.05 50.25-20L50.25-20Q49.55-18.3 49.15-16.35 48.75-14.4 48.75-12.1L48.75-12.1 48.75-3.25 54.15-2.3 54.15 0 39.55 0 39.55-2.3 43.4-3.25 43.4-24 39.55-24.95 39.55-27 47.25-27 48.35-20.4 48.55-20.4Q49.7-23.8 51.65-25.65 53.6-27.5 55.95-27.5L55.95-27.5Q57.9-27.5 59.2-26.28 60.5-25.05 60.5-23L60.5-23Q60.5-21.5 59.67-20.5 58.85-19.5 57.45-19.5L57.45-19.5Q55.9-19.5 55.12-20.38 54.35-21.25 54.35-22.5L54.35-22.5Q54.35-22.8 54.37-23.05 54.4-23.3 54.6-23.85ZM62.75-5.85L62.75-5.85Q62.75-9.85 66.45-12.1 70.15-14.35 78.5-15.6L78.5-15.6Q78.3-18.4 77.95-19.95 77.59-21.5 77.05-22.5L77.05-22.5Q76.4-23.75 75.25-24.4 74.09-25.05 72.65-25.05L72.65-25.05Q71.34-25.05 70.3-24.58 69.25-24.1 68.9-23.3L68.9-23.3Q69.59-22.85 69.9-22.08 70.2-21.3 70.2-20.65L70.2-20.65Q70.2-19.4 69.3-18.6 68.4-17.8 67.05-17.8L67.05-17.8Q65.75-17.8 64.92-18.68 64.09-19.55 64.09-21L64.09-21Q64.09-23.1 65.55-24.55 67-26 69.25-26.75 71.5-27.5 73.75-27.5L73.75-27.5Q75.9-27.5 77.67-26.85 79.45-26.2 80.65-25.1L80.65-25.1Q84-21.85 84-14.05L84-14.05 84-7.05Q84-4.6 84.32-3.65 84.65-2.7 85.75-2.7L85.75-2.7 88-2.7 88-0.95Q84.09 0.5 81.95 0.5L81.95 0.5Q80.4 0.5 79.84-0.63 79.3-1.75 79.3-4.95L79.3-4.95 79.09-4.95Q77.55-2.4 75-0.95 72.45 0.5 69.5 0.5L69.5 0.5Q66.34 0.5 64.55-1.2 62.75-2.9 62.75-5.85ZM71.95-2.65L71.95-2.65Q73.2-2.65 74.65-3.38 76.09-4.1 77.09-5.35L77.09-5.35Q77.84-6.25 78.25-7.6 78.65-8.95 78.65-10.8L78.65-10.8Q78.65-11.55 78.59-12.35 78.55-13.15 78.45-13.9L78.45-13.9Q74.59-13.1 72.42-12.2 70.25-11.3 69.32-10.05 68.4-8.8 68.4-7L68.4-7Q68.4-4.85 69.4-3.75 70.4-2.65 71.95-2.65ZM89.74-2.3L93.59-3.25 93.59-23.75 89.74-24.7 89.74-27 97.44-27 98.54-22 98.74-22Q100.24-24.55 102.79-26.03 105.34-27.5 108.24-27.5L108.24-27.5Q112.39-27.5 114.39-24.8L114.39-24.8Q115.39-23.4 115.82-20.88 116.24-18.35 116.24-14.05L116.24-14.05 116.24-3.25 120.09-2.3 120.09 0 107.54 0 107.54-2.3 110.89-3.25 110.89-13.9Q110.89-17.05 110.72-18.68 110.54-20.3 110.09-21.25L110.09-21.25Q109.54-22.5 108.47-23.08 107.39-23.65 105.94-23.65L105.94-23.65Q103.19-23.65 101.19-21.9L101.19-21.9Q99.14-20 98.94-16.1L98.94-16.1 98.94-3.25 102.29-2.3 102.29 0 89.74 0 89.74-2.3ZM123.24-13.3L123.24-13.3Q123.24-16.6 124.12-19.53 124.99-22.45 126.64-24.25L126.64-24.25Q128.09-25.85 130.09-26.68 132.09-27.5 134.69-27.5L134.69-27.5Q136.94-27.5 138.74-26.65 140.54-25.8 141.99-23.6L141.99-23.6 141.99-35.75 138.14-36.7 138.14-39 147.34-39 147.34-3.25 151.19-2.3 151.19 0 142.94 0.5 142.54-3.6Q140.99-1.3 139.04-0.4 137.09 0.5 134.64 0.5L134.64 0.5Q132.04 0.5 130.04-0.28 128.04-1.05 126.69-2.65L126.69-2.65Q125.14-4.55 124.19-7.3 123.24-10.05 123.24-13.3ZM141.99-13.3L141.99-13.3Q141.99-16.3 141.54-18.53 141.09-20.75 140.29-22.05L140.29-22.05Q139.49-23.3 138.34-23.98 137.19-24.65 135.39-24.65L135.39-24.65Q133.89-24.65 132.62-24.08 131.34-23.5 130.59-22.3L130.59-22.3Q129.74-21.05 129.37-18.8 128.99-16.55 128.99-13.75L128.99-13.75Q128.99-10.75 129.44-8.55 129.89-6.35 130.64-5L130.64-5Q131.44-3.75 132.64-3.05 133.84-2.35 135.54-2.35L135.54-2.35Q137.09-2.35 138.34-2.9 139.59-3.45 140.29-4.65L140.29-4.65Q141.09-6 141.54-8.2 141.99-10.4 141.99-13.3ZM154.04-2.3L157.89-3.25 157.89-23.75 154.04-24.7 154.04-27 161.74-27 162.84-22 163.04-22Q164.49-24.5 166.91-26 169.34-27.5 172.09-27.5L172.09-27.5Q174.14-27.5 175.74-26.73 177.34-25.95 178.09-24.8L178.09-24.8Q178.89-23.55 179.39-21.5L179.39-21.5Q180.99-24.3 183.54-25.9 186.09-27.5 188.99-27.5L188.99-27.5Q190.99-27.5 192.59-26.73 194.19-25.95 195.04-24.6L195.04-24.6Q195.64-23.65 195.99-22.15 196.34-20.65 196.49-18.28 196.64-15.9 196.64-12.25L196.64-12.25 196.64-3.25 200.49-2.3 200.49 0 187.94 0 187.94-2.3 191.29-3.25 191.29-13.9Q191.29-17.15 191.11-18.75 190.94-20.35 190.49-21.25L190.49-21.25Q189.94-22.45 188.94-23.03 187.94-23.6 186.69-23.6L186.69-23.6Q185.44-23.6 184.29-23.15 183.14-22.7 182.19-21.85L182.19-21.85Q181.09-20.85 180.56-19.5 180.04-18.15 179.94-16.1L179.94-16.1 179.94-3.25 183.29-2.3 183.29 0 171.24 0 171.24-2.3 174.59-3.25 174.59-13.9Q174.59-17.15 174.41-18.75 174.24-20.35 173.79-21.25L173.79-21.25Q173.24-22.45 172.24-23.03 171.24-23.6 169.99-23.6L169.99-23.6Q168.74-23.6 167.59-23.15 166.44-22.7 165.49-21.85L165.49-21.85Q164.39-20.85 163.86-19.5 163.34-18.15 163.24-16.1L163.24-16.1 163.24-3.25 166.59-2.3 166.59 0 154.04 0 154.04-2.3ZM203.19-5.85L203.19-5.85Q203.19-9.85 206.88-12.1 210.59-14.35 218.94-15.6L218.94-15.6Q218.74-18.4 218.38-19.95 218.03-21.5 217.49-22.5L217.49-22.5Q216.84-23.75 215.69-24.4 214.53-25.05 213.09-25.05L213.09-25.05Q211.78-25.05 210.74-24.58 209.69-24.1 209.34-23.3L209.34-23.3Q210.03-22.85 210.34-22.08 210.63-21.3 210.63-20.65L210.63-20.65Q210.63-19.4 209.74-18.6 208.84-17.8 207.49-17.8L207.49-17.8Q206.19-17.8 205.36-18.68 204.53-19.55 204.53-21L204.53-21Q204.53-23.1 205.99-24.55 207.44-26 209.69-26.75 211.94-27.5 214.19-27.5L214.19-27.5Q216.34-27.5 218.11-26.85 219.88-26.2 221.09-25.1L221.09-25.1Q224.44-21.85 224.44-14.05L224.44-14.05 224.44-7.05Q224.44-4.6 224.76-3.65 225.09-2.7 226.19-2.7L226.19-2.7 228.44-2.7 228.44-0.95Q224.53 0.5 222.38 0.5L222.38 0.5Q220.84 0.5 220.28-0.63 219.74-1.75 219.74-4.95L219.74-4.95 219.53-4.95Q217.99-2.4 215.44-0.95 212.88 0.5 209.94 0.5L209.94 0.5Q206.78 0.5 204.99-1.2 203.19-2.9 203.19-5.85ZM212.38-2.65L212.38-2.65Q213.63-2.65 215.09-3.38 216.53-4.1 217.53-5.35L217.53-5.35Q218.28-6.25 218.69-7.6 219.09-8.95 219.09-10.8L219.09-10.8Q219.09-11.55 219.03-12.35 218.99-13.15 218.88-13.9L218.88-13.9Q215.03-13.1 212.86-12.2 210.69-11.3 209.76-10.05 208.84-8.8 208.84-7L208.84-7Q208.84-4.85 209.84-3.75 210.84-2.65 212.38-2.65ZM229.78-2.3L233.63-3.25 233.63-35.75 229.78-36.7 229.78-39 238.98-39 238.98-3.25 242.83-2.3 242.83 0 229.78 0 229.78-2.3ZM272.78-24.7L269.73-23.75 261.53-1.2Q260.03 2.65 258.81 5.03 257.58 7.4 256.11 8.45 254.63 9.5 252.33 9.5L252.33 9.5Q249.98 9.5 248.31 8.25 246.63 7 246.63 5.1L246.63 5.1Q246.63 3.6 247.5 2.6 248.38 1.6 249.78 1.6L249.78 1.6Q251.03 1.6 251.73 2.23 252.43 2.85 252.43 4.05L252.43 4.05Q252.43 4.65 252.08 5.38 251.73 6.1 251.03 6.45L251.03 6.45Q251.13 6.95 251.63 7.13 252.13 7.3 252.48 7.3L252.48 7.3Q253.18 7.3 253.78 6.98 254.38 6.65 255.06 5.58 255.73 4.5 256.53 2.2L256.53 2.2 257.13 0.35 246.88-23.75 243.88-24.7 243.88-27 255.58-27 255.98-24.7 252.43-23.75 259.43-4.9 259.63-4.9 265.68-23.75 262.78-24.7 262.78-27 272.78-27 272.78-24.7Z" opacity="1" transform="matrix(1,0,0,1,0,0)" fill="#398378" class="wordmark-text-0" data-fill-palette-color="primary" id="text-0"></path></svg></g></svg></g></svg></g></svg></g></svg></g><defs></defs></svg><rect width="395.52" height="70.96825749167591" fill="none" stroke="none" visibility="hidden"></rect></g></svg></g></svg>