<svg xmlns="http://www.w3.org/2000/svg" version="1.1" xmlns:xlink="http://www.w3.org/1999/xlink" xmlns:svgjs="http://svgjs.dev/svgjs" width="1500" height="1500" viewBox="0 0 1500 1500"><g transform="matrix(1,0,0,1,0,0)"><svg viewBox="0 0 280 280" data-background-color="#ffffff" preserveAspectRatio="xMidYMid meet" height="1500" width="1500" xmlns="http://www.w3.org/2000/svg" xmlns:xlink="http://www.w3.org/1999/xlink"><g id="tight-bounds" transform="matrix(1,0,0,1,0,0)"><svg viewBox="0 0 280 280" height="280" width="280"><g><svg viewBox="0 0 280 280" height="280" width="280"><g><svg viewBox="0 0 280 280" height="280" width="280"><g id="textblocktransform"><svg viewBox="0 0 280 280" height="280" width="280" id="textblock"><g><svg viewBox="0 0 280 280" height="280" width="280"><g transform="matrix(1,0,0,1,96.88233523018604,74.00336708925556)"><svg viewBox="0 0 86.2353295396279 131.99326582148888" height="131.99326582148888" width="86.2353295396279"><g id="icon-0"><svg xmlns="http://www.w3.org/2000/svg" xmlns:xlink="http://www.w3.org/1999/xlink" version="1.1" x="0" y="0" viewBox="24.524000000000004 11.005999999999997 50.952 77.988" enable-background="new 0 0 100 100" xml:space="preserve" height="131.99326582148888" width="86.2353295396279" class="icon-xg-0" data-fill-palette-color="accent" id="xg-0"><g fill="#398378" data-fill-palette-color="accent"><circle cx="45.044" cy="56.547" r="1.3" fill="#398378" data-fill-palette-color="accent"></circle><circle cx="54.956" cy="56.547" r="1.3" fill="#398378" data-fill-palette-color="accent"></circle><path d="M75.476 44.047c0-10.536-7.584-19.47-17.989-22.421 0.345-0.881 0.542-1.813 0.542-2.776 0-4.325-3.602-7.844-8.029-7.844-4.427 0-8.029 3.519-8.029 7.844 0 0.963 0.197 1.894 0.542 2.776-10.405 2.952-17.989 11.885-17.989 22.421 0 5.054 1.805 9.976 5.069 14.008-0.732 1.223-1.156 2.65-1.156 4.177 0 3.985 2.873 7.312 6.656 8.018v3.837c0 8.22 6.688 14.907 14.907 14.907s14.907-6.688 14.907-14.907V70.25c3.783-0.706 6.656-4.032 6.656-8.018 0-1.526-0.424-2.954-1.157-4.177C73.671 54.022 75.476 49.1 75.476 44.047zM45.48 20.965c-0.335-0.657-0.509-1.375-0.509-2.115 0-2.671 2.256-4.844 5.029-4.844 2.773 0 5.029 2.173 5.029 4.844 0 0.74-0.174 1.458-0.509 2.114-0.026-0.004-0.053-0.005-0.079-0.01-0.696-0.113-1.4-0.202-2.113-0.262-0.06-0.005-0.12-0.008-0.18-0.013-0.709-0.055-1.424-0.09-2.149-0.09-0.726 0-1.442 0.035-2.153 0.09-0.057 0.004-0.114 0.007-0.171 0.012-0.72 0.06-1.43 0.15-2.131 0.265C45.524 20.961 45.502 20.961 45.48 20.965zM45.105 24.085c0.384-0.078 0.769-0.147 1.155-0.206 0.013-0.002 0.026-0.004 0.039-0.006 2.048-0.311 4.122-0.363 6.179-0.155 0.002 0 0.005 0.001 0.007 0.001 0.403 0.041 0.806 0.092 1.208 0.153 0.023 0.003 0.046 0.008 0.069 0.011 0.376 0.058 0.751 0.125 1.125 0.201 10.051 2.037 17.59 10.212 17.59 19.964 0 4.201-1.437 8.316-4.071 11.74-0.047-0.037-0.099-0.065-0.147-0.101-0.151-0.112-0.307-0.217-0.465-0.319-0.08-0.052-0.158-0.107-0.24-0.156-0.229-0.136-0.467-0.258-0.71-0.371-0.09-0.042-0.183-0.079-0.274-0.117-0.183-0.077-0.368-0.148-0.557-0.212-0.089-0.03-0.178-0.061-0.269-0.088-0.273-0.082-0.551-0.154-0.835-0.208v-6.333c0-8.22-6.688-14.907-14.907-14.907s-14.907 6.688-14.907 14.907v6.333c-0.284 0.053-0.562 0.126-0.835 0.208-0.091 0.027-0.179 0.058-0.269 0.088-0.189 0.064-0.375 0.135-0.558 0.212-0.092 0.039-0.184 0.075-0.274 0.117-0.243 0.113-0.481 0.236-0.711 0.372-0.081 0.048-0.158 0.103-0.237 0.154-0.16 0.103-0.318 0.209-0.47 0.323-0.047 0.035-0.098 0.063-0.144 0.099-2.635-3.424-4.071-7.538-4.071-11.74C27.524 34.298 35.058 26.125 45.105 24.085zM63.407 67.388c-0.828 0-1.5 0.672-1.5 1.5v5.198c0 6.565-5.342 11.907-11.907 11.907s-11.907-5.342-11.907-11.907v-5.198c0-0.828-0.671-1.5-1.5-1.5-2.843 0-5.156-2.313-5.156-5.156 0-1.402 0.566-2.672 1.477-3.602 0.018-0.019 0.035-0.039 0.053-0.057 0.212-0.21 0.445-0.399 0.691-0.57 0.035-0.024 0.069-0.049 0.105-0.072 0.245-0.161 0.503-0.303 0.775-0.421 0.041-0.018 0.083-0.034 0.125-0.05 0.277-0.112 0.564-0.205 0.863-0.268 0.032-0.007 0.065-0.01 0.097-0.016 0.315-0.06 0.639-0.098 0.971-0.098 0.829 0 1.5-0.672 1.5-1.5v-7.695c0-6.565 5.342-11.907 11.907-11.907s11.907 5.342 11.907 11.907v7.695c0 0.828 0.672 1.5 1.5 1.5 0.333 0 0.656 0.038 0.972 0.098 0.032 0.006 0.064 0.009 0.096 0.016 0.299 0.063 0.588 0.156 0.866 0.269 0.04 0.016 0.08 0.031 0.12 0.048 0.273 0.119 0.534 0.261 0.78 0.424 0.033 0.022 0.066 0.045 0.099 0.068 0.247 0.172 0.482 0.362 0.695 0.574 0.017 0.017 0.033 0.036 0.05 0.054 0.913 0.931 1.48 2.202 1.48 3.605C68.563 65.075 66.25 67.388 63.407 67.388z" fill="#398378" data-fill-palette-color="accent"></path><path d="M54.23 71.615c-0.617 0.617-1.271 1.084-1.942 1.409l-1.36-3.878 2.915-1.415c0.434-0.211 0.74-0.617 0.822-1.093 0.083-0.475-0.068-0.961-0.405-1.306-0.036-0.037-3.631-4.109-2.763-17.354 0.054-0.827-0.572-1.541-1.399-1.595-0.833-0.064-1.541 0.572-1.595 1.398-0.673 10.263 1.171 15.589 2.479 18.002l-2.567 1.247c-0.686 0.333-1.012 1.127-0.76 1.847l1.626 4.634c-1.219-0.179-2.42-0.807-3.511-1.898-0.586-0.586-1.535-0.586-2.121 0s-0.586 1.535 0 2.121c1.899 1.899 4.125 2.85 6.352 2.85s4.452-0.95 6.351-2.85c0.586-0.586 0.586-1.535 0-2.121S54.816 71.029 54.23 71.615z" fill="#398378" data-fill-palette-color="accent"></path></g></svg></g></svg></g><g id="text-0"><path d="M32.771 101.227v0c0.768-2.033 0.836-3.747 0.206-5.143-0.631-1.396-1.938-2.468-3.921-3.217v0l-2.505-0.946-1.889 2.717-1.612-0.609 3.624-9.597 1.612 0.608-0.382 3.298 10.491 3.962-0.703 1.86-3.165-0.174c0.755 1.457 1.168 2.834 1.24 4.13 0.071 1.297-0.177 2.698-0.745 4.202v0c-1.236 3.273-3.228 5.51-5.976 6.711v0c-1.539 0.675-3.283 0.991-5.232 0.95-1.949-0.041-3.961-0.454-6.036-1.238v0c-2.125-0.802-3.982-1.865-5.574-3.189-1.585-1.321-2.756-2.781-3.513-4.379v0c-0.663-1.366-1.003-2.796-1.022-4.291-0.024-1.497 0.276-3.071 0.9-4.722v0c0.54-1.431 1.225-2.575 2.054-3.434 0.829-0.859 1.912-1.541 3.247-2.047v0l-2.17-1.725 0.745-1.971 7.912 2.988-0.828 2.193c-2.225-0.462-4.101-0.279-5.627 0.548-1.528 0.833-2.68 2.275-3.455 4.326v0c-0.45 1.191-0.635 2.276-0.555 3.253 0.082 0.971 0.432 1.914 1.048 2.827v0c0.748 1.047 1.812 2.056 3.193 3.026 1.381 0.97 2.931 1.78 4.65 2.43v0c1.762 0.666 3.475 1.074 5.137 1.224 1.662 0.151 3.165 0.045 4.509-0.318v0c1.069-0.305 1.949-0.794 2.637-1.466 0.687-0.667 1.255-1.596 1.705-2.787z" fill="#398378" data-fill-palette-color="primary"></path><path d="M39.842 57.221v0c-0.127 0.033-0.249 0.092-0.366 0.176-0.121 0.089-0.22 0.182-0.297 0.279v0c-0.192 0.242-0.287 0.589-0.287 1.042-0.003 0.458 0.078 0.963 0.244 1.514 0.162 0.556 0.394 1.134 0.697 1.735v0c0.458 0.816 1.03 1.627 1.716 2.43 0.681 0.8 1.45 1.541 2.309 2.223v0l5.614 4.457 3.141-2.786 1.226 0.973-6.715 8.459-1.226-0.973 1.259-2.759-12.6-10.003-2.401 1.853-1.226-0.973 3.428-4.319 4.483 2.478 0.092-0.116c-0.99-1.54-1.547-2.992-1.671-4.356-0.12-1.369 0.194-2.524 0.94-3.465v0c0.616-0.776 1.375-1.23 2.275-1.361 0.91-0.133 1.773 0.126 2.591 0.774v0c0.601 0.477 0.953 1.012 1.053 1.603 0.105 0.586-0.049 1.139-0.461 1.658v0c-0.412 0.519-0.903 0.8-1.473 0.842-0.566 0.037-1.118-0.159-1.658-0.588v0c-0.123-0.098-0.231-0.2-0.323-0.306-0.097-0.11-0.218-0.274-0.364-0.491z" fill="#398378" data-fill-palette-color="primary"></path><path d="M64.449 52.448v0c-1.165-1.612-1.329-3.429-0.491-5.452 0.838-2.023 2.816-4.558 5.934-7.606v0c-0.966-1.157-1.767-2.023-2.403-2.601-0.64-0.582-1.222-0.996-1.747-1.24v0c-0.679-0.335-1.372-0.442-2.078-0.32-0.704 0.112-1.357 0.386-1.958 0.821v0c-0.58 0.419-1.026 0.9-1.339 1.441-0.318 0.546-0.433 1.054-0.344 1.525v0c0.443-0.004 0.85 0.111 1.221 0.344 0.371 0.234 0.663 0.497 0.875 0.789v0c0.373 0.516 0.497 1.046 0.372 1.59-0.121 0.549-0.429 1.003-0.924 1.361v0c-0.5 0.361-1.029 0.493-1.587 0.393-0.561-0.104-1.058-0.454-1.488-1.05v0c-0.631-0.872-0.861-1.824-0.69-2.854 0.161-1.032 0.588-2.037 1.281-3.016 0.697-0.974 1.511-1.797 2.443-2.471v0c0.851-0.615 1.727-1.05 2.628-1.304 0.897-0.26 1.777-0.321 2.638-0.183v0c2.209 0.355 4.494 2.166 6.855 5.432v0l3.254 4.5c0.735 1.016 1.311 1.673 1.728 1.971 0.414 0.292 0.849 0.273 1.306-0.058v0l1.397-1.01 0.675 0.934c-1.055 1.678-1.997 2.817-2.827 3.416v0c-0.638 0.461-1.236 0.537-1.793 0.227-0.553-0.305-1.308-1.12-2.265-2.444v0l-0.128 0.092c0.123 1.515-0.125 2.953-0.743 4.316-0.624 1.366-1.545 2.49-2.763 3.37v0c-1.303 0.942-2.581 1.331-3.833 1.168-1.256-0.169-2.325-0.863-3.206-2.081zM71.485 50.618v0c0.58-0.419 1.079-1.007 1.496-1.762 0.412-0.752 0.64-1.556 0.684-2.415v0c0.034-0.648-0.078-1.312-0.335-1.993-0.257-0.681-0.663-1.404-1.216-2.17v0c-0.254-0.351-0.512-0.691-0.774-1.02-0.271-0.33-0.54-0.634-0.805-0.912v0c-1.437 1.541-2.493 2.847-3.169 3.919-0.675 1.071-1.019 2.013-1.032 2.824-0.009 0.817 0.269 1.616 0.834 2.397v0c0.646 0.894 1.346 1.436 2.1 1.629 0.754 0.192 1.493 0.026 2.217-0.497z" fill="#398378" data-fill-palette-color="primary"></path><path d="M93.768 37.723l2.556-1.632-5.148-15.242-3.023 0.252-0.501-1.483 5.224-1.765 2.028 3.358 0.14-0.047c0.312-1.477 0.962-2.781 1.952-3.912 0.99-1.131 2.187-1.934 3.593-2.409v0c2.009-0.678 3.715-0.528 5.12 0.453v0c0.714 0.514 1.379 1.346 1.997 2.495 0.619 1.156 1.279 2.772 1.98 4.849v0l2.71 8.022 3.032-0.255 0.501 1.483-8.75 2.956-0.501-1.483 2.202-1.513-2.735-8.097c-0.529-1.567-0.969-2.725-1.319-3.472-0.341-0.744-0.694-1.297-1.059-1.659v0c-0.49-0.486-1.056-0.787-1.697-0.902-0.65-0.12-1.348-0.054-2.095 0.198v0c-1.405 0.475-2.464 1.331-3.175 2.569v0c-0.693 1.232-0.767 2.805-0.224 4.721v0l3.274 9.692 2.658-0.129 0.501 1.483-8.74 2.953z" fill="#398378" data-fill-palette-color="primary"></path><path d="M129.777 19.927v0c-0.02-1.654 0.178-3.238 0.593-4.753 0.415-1.508 1.05-2.74 1.905-3.696v0c0.732-0.829 1.607-1.46 2.626-1.892 1.012-0.432 2.181-0.656 3.507-0.673v0c1.129-0.014 2.162 0.191 3.099 0.613 0.931 0.422 1.774 1.19 2.529 2.303v0l-0.114-9.49-2.953-0.694-0.018-1.565 6.655-0.08 0.331 27.566 2.963 0.693 0.018 1.566-5.932 0.455-0.342-3.137c-0.78 1.184-1.663 2.012-2.649 2.484-0.992 0.471-2.102 0.715-3.329 0.729v0c-1.3 0.016-2.473-0.161-3.522-0.529-1.055-0.375-1.932-0.978-2.631-1.81v0c-0.826-0.988-1.483-2.175-1.972-3.56-0.489-1.386-0.744-2.896-0.764-4.53zM144.131 19.725v0c-0.019-1.562-0.15-2.916-0.394-4.062-0.244-1.146-0.586-2.074-1.028-2.784v0c-0.415-0.658-0.92-1.154-1.514-1.488-0.588-0.341-1.368-0.505-2.34-0.494v0c-0.866 0.01-1.623 0.174-2.268 0.49-0.646 0.316-1.172 0.769-1.579 1.358v0c-0.452 0.642-0.772 1.558-0.961 2.749-0.189 1.19-0.275 2.55-0.257 4.079v0c0.018 1.536 0.149 2.87 0.393 4.003 0.243 1.133 0.586 2.067 1.028 2.804v0c0.441 0.631 0.965 1.121 1.574 1.468 0.602 0.354 1.375 0.525 2.32 0.514v0c0.893-0.011 1.662-0.168 2.308-0.471 0.653-0.303 1.14-0.749 1.461-1.337v0c0.425-0.721 0.745-1.65 0.961-2.789 0.216-1.138 0.315-2.485 0.296-4.04z" fill="#398378" data-fill-palette-color="primary"></path><path d="M164.527 30.701l3.014 0.341 5.598-15.082-2.506-1.708 0.545-1.467 5.169 1.918-0.539 3.886 0.138 0.051c1.141-0.942 2.425-1.554 3.853-1.836 1.424-0.291 2.795-0.191 4.112 0.298v0c0.978 0.363 1.784 0.872 2.416 1.526 0.624 0.659 1.015 1.329 1.175 2.012v0c0.16 0.739 0.177 1.645 0.052 2.718v0c1.261-1.058 2.645-1.742 4.153-2.05 1.504-0.317 2.948-0.218 4.332 0.296v0c0.96 0.356 1.753 0.861 2.379 1.513 0.63 0.661 1.028 1.39 1.195 2.187v0c0.12 0.563 0.131 1.232 0.032 2.007-0.101 0.782-0.326 1.755-0.675 2.921-0.353 1.157-0.853 2.61-1.502 4.358v0l-2.467 6.645 2.515 1.711-0.544 1.468-8.649-3.21 0.545-1.468 2.653 0.208 2.974-8.012c0.576-1.551 0.966-2.725 1.172-3.525 0.197-0.795 0.268-1.448 0.212-1.958v0c-0.074-0.686-0.312-1.271-0.713-1.756-0.405-0.493-0.955-0.869-1.651-1.128v0c-0.597-0.222-1.226-0.319-1.887-0.291-0.668 0.025-1.301 0.158-1.901 0.397v0c-0.707 0.284-1.307 0.702-1.799 1.254-0.492 0.552-0.941 1.31-1.348 2.273v0l-3.56 9.59 2.146 1.574-0.545 1.468-8.288-3.077 0.544-1.468 2.654 0.208 2.974-8.012c0.576-1.551 0.966-2.725 1.172-3.524 0.197-0.795 0.268-1.448 0.212-1.959v0c-0.074-0.686-0.312-1.271-0.713-1.756-0.405-0.493-0.955-0.869-1.651-1.127v0c-0.597-0.222-1.226-0.319-1.887-0.291-0.661 0.028-1.295 0.16-1.901 0.397v0c-0.707 0.284-1.307 0.702-1.8 1.254-0.492 0.552-0.941 1.31-1.347 2.272v0l-3.56 9.59 2.146 1.574-0.545 1.468-8.649-3.211z" fill="#398378" data-fill-palette-color="primary"></path><path d="M210.714 48.637v0c1.296-1.509 3.025-2.091 5.188-1.748 2.163 0.343 5.089 1.676 8.779 3.998v0c0.9-1.209 1.556-2.189 1.969-2.942 0.417-0.758 0.684-1.42 0.799-1.987v0c0.167-0.739 0.11-1.437-0.173-2.096-0.273-0.659-0.691-1.23-1.254-1.713v0c-0.543-0.466-1.114-0.788-1.714-0.966-0.605-0.182-1.126-0.175-1.562 0.021v0c0.107 0.429 0.09 0.852-0.051 1.267-0.141 0.416-0.329 0.76-0.563 1.034v0c-0.415 0.483-0.901 0.727-1.46 0.732-0.562 0.01-1.075-0.184-1.538-0.581v0c-0.468-0.402-0.719-0.886-0.753-1.451-0.029-0.57 0.196-1.134 0.675-1.692v0c0.701-0.817 1.573-1.262 2.615-1.336 1.041-0.084 2.118 0.098 3.232 0.543 1.109 0.451 2.1 1.051 2.971 1.8v0c0.797 0.684 1.424 1.435 1.881 2.252 0.462 0.812 0.726 1.653 0.792 2.523v0c0.169 2.231-1.059 4.875-3.685 7.932v0l-3.619 4.212c-0.817 0.951-1.321 1.664-1.513 2.14-0.188 0.47-0.068 0.89 0.36 1.257v0l1.307 1.123-0.75 0.874c-1.877-0.635-3.205-1.286-3.981-1.954v0c-0.597-0.513-0.81-1.077-0.638-1.69 0.168-0.609 0.784-1.533 1.849-2.772v0l-0.119-0.103c-1.444 0.473-2.901 0.567-4.371 0.283-1.474-0.288-2.781-0.922-3.921-1.902v0c-1.22-1.048-1.896-2.2-2.029-3.456-0.128-1.261 0.297-2.462 1.277-3.602zM214.133 55.053v0c0.543 0.466 1.23 0.814 2.062 1.044 0.827 0.226 1.663 0.26 2.508 0.103v0c0.638-0.118 1.258-0.382 1.86-0.79 0.602-0.409 1.211-0.972 1.827-1.689v0c0.282-0.329 0.553-0.659 0.811-0.99 0.258-0.341 0.491-0.673 0.7-0.995v0c-1.834-1.039-3.35-1.761-4.549-2.169-1.199-0.407-2.195-0.522-2.987-0.346-0.796 0.181-1.509 0.638-2.137 1.37v0c-0.719 0.836-1.083 1.644-1.094 2.422-0.011 0.778 0.322 1.458 0.999 2.04z" fill="#398378" data-fill-palette-color="primary"></path><path d="M232.001 73.821l2.291 1.987 20.659-14.56-1.1-2.826 1.28-0.902 3.84 5.449-22.535 15.881 1.101 2.826-1.28 0.902-5.536-7.855z" fill="#398378" data-fill-palette-color="primary"></path><path d="M268.031 107.925l-1.49-1.938-18.588 0.066c-2.089 0.007-3.804-0.054-5.145-0.183-1.341-0.129-2.385-0.437-3.132-0.924-0.752-0.485-1.322-1.255-1.71-2.308v0c-0.415-1.127-0.471-2.201-0.168-3.222 0.307-1.029 0.913-1.71 1.818-2.044v0c0.671-0.247 1.3-0.258 1.886-0.034 0.584 0.219 0.991 0.639 1.22 1.261v0c0.202 0.548 0.212 1.041 0.03 1.479-0.178 0.429-0.531 0.741-1.061 0.936v0c-0.333 0.122-0.68 0.177-1.041 0.164-0.356-0.016-0.693-0.088-1.013-0.215v0c-0.224 0.132-0.335 0.333-0.333 0.605 0.008 0.27 0.043 0.488 0.104 0.654v0c0.125 0.339 0.322 0.619 0.593 0.842 0.273 0.228 0.74 0.406 1.403 0.532 0.654 0.123 1.627 0.163 2.919 0.122v0l1.491-0.056 14.761-13.881-0.109-2.404 1.469-0.541 2.963 8.047-1.364 0.828-1.623-2.299-12.12 10.538 0.054 0.147 15.757-0.66-0.085-2.34 1.469-0.541 2.514 6.828z" fill="#398378" data-fill-palette-color="primary"></path><path d="M17.31 193.991v0c0.849 2.191 2.034 3.622 3.554 4.293 1.52 0.671 3.348 0.592 5.485-0.236v0l2.708-1.049-0.443-3.567 1.735-0.672 4.018 10.364-1.735 0.673-2.077-2.934-11.328 4.392-0.78-2.011 2.684-2.149c-1.666-0.629-2.997-1.439-3.995-2.432-0.991-0.996-1.802-2.307-2.434-3.936v0c-1.369-3.531-1.379-6.773-0.031-9.723v0c0.752-1.657 1.928-3.172 3.529-4.546 1.598-1.38 3.52-2.505 5.766-3.376v0c2.295-0.89 4.561-1.374 6.797-1.452 2.236-0.078 4.24 0.25 6.011 0.986v0c1.516 0.623 2.825 1.531 3.927 2.722 1.096 1.194 1.989 2.679 2.677 4.454v0c0.6 1.548 0.876 2.969 0.828 4.262-0.048 1.293-0.429 2.627-1.142 4.001v0l3.003-0.182 0.825 2.13-8.547 3.313-0.914-2.36c2.131-1.241 3.511-2.748 4.14-4.519 0.636-1.774 0.523-3.772-0.338-5.994v0c-0.498-1.285-1.135-2.292-1.909-3.019-0.766-0.724-1.727-1.231-2.882-1.522v0c-1.363-0.302-2.951-0.349-4.763-0.139-1.816 0.218-3.651 0.687-5.506 1.405v0c-1.909 0.74-3.587 1.651-5.034 2.733-1.455 1.078-2.588 2.249-3.4 3.514v0c-0.645 1.024-1.003 2.054-1.073 3.088-0.071 1.034 0.144 2.197 0.644 3.488z" fill="#398378" data-fill-palette-color="primary"></path><path d="M53.919 221.205v0c-0.004-0.14-0.037-0.282-0.101-0.424-0.063-0.152-0.138-0.281-0.224-0.389v0c-0.206-0.256-0.55-0.437-1.034-0.545-0.478-0.112-1.03-0.148-1.655-0.108-0.625 0.04-1.291 0.15-1.996 0.331v0c-0.974 0.287-1.968 0.696-2.982 1.226-1.005 0.531-1.972 1.172-2.903 1.921v0l-6.034 4.861 2.197 3.983-1.326 1.069-7.338-9.109 1.326-1.069 2.615 1.99 13.563-10.926-1.387-2.978 1.326-1.069 3.743 4.646-3.689 4.148 0.105 0.13c1.861-0.682 3.528-0.925 5.002-0.729 1.473 0.196 2.617 0.8 3.432 1.812v0c0.679 0.843 0.98 1.756 0.902 2.737-0.079 0.991-0.558 1.84-1.437 2.548v0c-0.649 0.523-1.296 0.766-1.941 0.73-0.646-0.028-1.195-0.322-1.648-0.885v0c-0.449-0.557-0.627-1.139-0.533-1.745 0.098-0.61 0.439-1.15 1.021-1.62v0c0.128-0.103 0.259-0.192 0.393-0.265 0.134-0.074 0.335-0.165 0.604-0.271z" fill="#398378" data-fill-palette-color="primary"></path><path d="M57.054 245.225v0c1.257-1.748 3.07-2.538 5.439-2.37 2.364 0.164 5.645 1.33 9.842 3.499v0c0.86-1.387 1.479-2.506 1.856-3.358 0.373-0.856 0.599-1.598 0.68-2.228v0c0.103-0.807-0.023-1.553-0.379-2.237-0.362-0.689-0.868-1.267-1.518-1.735v0c-0.629-0.452-1.279-0.746-1.95-0.88-0.662-0.136-1.219-0.081-1.673 0.167v0c0.153 0.45 0.172 0.908 0.055 1.374-0.108 0.464-0.274 0.854-0.5 1.168v0c-0.406 0.565-0.913 0.876-1.52 0.933-0.601 0.061-1.171-0.102-1.709-0.49v0c-0.544-0.391-0.858-0.892-0.944-1.503-0.09-0.606 0.099-1.234 0.567-1.885v0c0.678-0.943 1.576-1.506 2.693-1.689 1.121-0.188 2.304-0.09 3.548 0.295 1.238 0.381 2.363 0.935 3.375 1.664v0c0.917 0.659 1.662 1.41 2.238 2.251 0.573 0.833 0.934 1.714 1.081 2.645v0c0.391 2.391-0.688 5.359-3.236 8.903v0l-3.512 4.884c-0.793 1.103-1.268 1.922-1.426 2.455-0.163 0.53 0.004 0.973 0.5 1.329v0l1.51 1.087-0.724 1.007c-2.082-0.511-3.574-1.09-4.474-1.738v0c-0.693-0.498-0.974-1.085-0.845-1.759 0.12-0.673 0.698-1.73 1.732-3.169v0l-0.127-0.092c-1.522 0.644-3.09 0.879-4.703 0.705-1.613-0.174-3.081-0.736-4.403-1.686v0c-1.418-1.019-2.255-2.199-2.511-3.54-0.262-1.345 0.084-2.68 1.038-4.007zM61.345 251.839v0c0.629 0.452 1.401 0.761 2.317 0.927 0.921 0.169 1.827 0.129 2.717-0.12v0c0.679-0.191 1.326-0.534 1.941-1.03 0.615-0.496 1.221-1.159 1.82-1.99v0c0.272-0.378 0.529-0.764 0.77-1.156 0.243-0.383 0.464-0.758 0.663-1.124v0c-2.074-0.95-3.777-1.588-5.11-1.916-1.333-0.328-2.417-0.36-3.254-0.096-0.84 0.269-1.567 0.83-2.18 1.682v0c-0.694 0.965-1.012 1.868-0.954 2.71 0.058 0.842 0.481 1.546 1.27 2.113z" fill="#398378" data-fill-palette-color="primary"></path><path d="M87.195 267.257l3.274 0.274 5.57-16.503-2.77-1.766 0.545-1.614 5.653 1.908-0.458 4.22 0.158 0.054c1.233-1.066 2.649-1.763 4.249-2.089 1.597-0.32 3.155-0.224 4.672 0.288v0c2.177 0.735 3.548 1.987 4.115 3.758v0c0.281 0.912 0.308 2.064 0.08 3.457-0.223 1.4-0.715 3.226-1.475 5.477v0l-2.931 8.685 2.78 1.77-0.545 1.614-9.478-3.2 0.545-1.613 2.892 0.144 2.956-8.759c0.575-1.704 0.958-2.992 1.148-3.863 0.19-0.871 0.246-1.58 0.167-2.126v0c-0.099-0.733-0.388-1.364-0.868-1.893-0.48-0.529-1.127-0.931-1.941-1.206v0c-1.517-0.512-2.99-0.469-4.419 0.13v0c-1.403 0.607-2.5 1.917-3.29 3.929v0l-3.539 10.485 2.379 1.635-0.545 1.614-9.469-3.196z" fill="#398378" data-fill-palette-color="primary"></path><path d="M128.926 268.386v0c0.023-1.798 0.279-3.512 0.766-5.139 0.494-1.622 1.217-2.938 2.169-3.95v0c0.812-0.876 1.776-1.533 2.891-1.971 1.109-0.445 2.382-0.658 3.819-0.64v0c1.221 0.016 2.333 0.267 3.338 0.753 0.998 0.479 1.89 1.334 2.674 2.565v0l0.134-10.288-3.179-0.829 0.022-1.703 7.217 0.094-0.39 29.86 3.179 0.829-0.022 1.703-6.424 0.33-0.291-3.401c-0.876 1.255-1.856 2.126-2.938 2.611-1.083 0.485-2.291 0.718-3.623 0.701v0c-1.405-0.018-2.672-0.242-3.802-0.67-1.13-0.428-2.063-1.103-2.8-2.026v0c-0.865-1.094-1.544-2.396-2.036-3.906-0.492-1.516-0.727-3.157-0.704-4.923zM144.472 268.54v0c0.022-1.68-0.08-3.145-0.307-4.396-0.233-1.25-0.581-2.266-1.044-3.046v0c-0.43-0.721-0.961-1.273-1.593-1.655-0.632-0.382-1.473-0.58-2.523-0.595v0c-0.939-0.012-1.764 0.144-2.477 0.47-0.707 0.319-1.287 0.794-1.742 1.425v0c-0.508 0.683-0.878 1.666-1.112 2.949-0.24 1.283-0.371 2.755-0.392 4.416v0c-0.022 1.661 0.084 3.106 0.317 4.337 0.233 1.237 0.581 2.259 1.044 3.066v0c0.457 0.695 1.008 1.241 1.652 1.636 0.645 0.396 1.479 0.6 2.503 0.614v0c0.965 0.013 1.804-0.134 2.517-0.44 0.706-0.312 1.244-0.785 1.613-1.416v0c0.483-0.768 0.857-1.764 1.122-2.989 0.259-1.231 0.399-2.689 0.422-4.376z" fill="#398378" data-fill-palette-color="primary"></path><path d="M169.852 274.632l2.713-1.855-6.098-16.315-3.264 0.379-0.596-1.595 5.589-2.089 2.309 3.562 0.157-0.058c0.268-1.572 0.883-2.982 1.845-4.232 0.971-1.246 2.167-2.134 3.586-2.665v0c1.064-0.398 2.085-0.552 3.065-0.462 0.982 0.096 1.778 0.369 2.388 0.821v0c0.653 0.492 1.308 1.221 1.963 2.188v0c0.288-1.761 0.937-3.304 1.95-4.628 1.012-1.324 2.268-2.266 3.768-2.827v0c1.039-0.388 2.045-0.537 3.018-0.445 0.982 0.096 1.824 0.408 2.526 0.937v0c0.491 0.377 0.975 0.921 1.451 1.633 0.468 0.708 0.972 1.662 1.511 2.862 0.54 1.2 1.163 2.747 1.871 4.641v0l2.685 7.184 3.264-0.379 0.597 1.596-9.361 3.498-0.597-1.595 2.325-1.71-3.236-8.66c-0.63-1.685-1.146-2.925-1.548-3.721-0.402-0.796-0.804-1.381-1.204-1.757v0c-0.546-0.504-1.159-0.814-1.84-0.931-0.675-0.119-1.388-0.038-2.138 0.242v0c-0.652 0.244-1.24 0.611-1.764 1.101-0.524 0.49-0.95 1.049-1.277 1.675v0c-0.379 0.73-0.572 1.496-0.581 2.298-0.009 0.802 0.161 1.744 0.51 2.827v0l3.874 10.366 2.877-0.234 0.596 1.595-8.974 3.354-0.596-1.596 2.325-1.709-3.237-8.661c-0.63-1.685-1.146-2.925-1.548-3.72-0.396-0.798-0.797-1.384-1.203-1.757v0c-0.546-0.504-1.159-0.814-1.84-0.931-0.675-0.119-1.388-0.038-2.138 0.242v0c-0.652 0.244-1.24 0.611-1.765 1.1-0.524 0.49-0.95 1.049-1.276 1.676v0c-0.373 0.728-0.566 1.494-0.581 2.298-0.009 0.802 0.161 1.744 0.51 2.826v0l3.874 10.367 2.876-0.235 0.597 1.596-9.361 3.498z" fill="#398378" data-fill-palette-color="primary"></path><path d="M218.574 248.676v0c-1.41-1.627-1.76-3.574-1.048-5.84 0.706-2.262 2.599-5.184 5.679-8.766v0c-1.15-1.157-2.096-2.018-2.837-2.583-0.746-0.561-1.416-0.953-2.01-1.177v0c-0.761-0.287-1.516-0.336-2.265-0.147-0.754 0.193-1.433 0.551-2.038 1.076v0c-0.585 0.507-1.021 1.072-1.308 1.693-0.286 0.612-0.36 1.168-0.224 1.666v0c0.473-0.045 0.923 0.043 1.35 0.264 0.427 0.212 0.767 0.464 1.02 0.757v0c0.456 0.526 0.641 1.09 0.556 1.694-0.08 0.599-0.371 1.116-0.871 1.55v0c-0.506 0.438-1.066 0.629-1.681 0.571-0.61-0.053-1.178-0.382-1.702-0.987v0c-0.761-0.878-1.101-1.882-1.021-3.012 0.076-1.135 0.445-2.262 1.107-3.383 0.657-1.116 1.456-2.083 2.399-2.899v0c0.853-0.739 1.756-1.291 2.708-1.656 0.943-0.365 1.884-0.512 2.823-0.441v0c2.417 0.173 5.054 1.908 7.913 5.207v0l3.94 4.546c0.89 1.027 1.576 1.678 2.059 1.955 0.478 0.281 0.947 0.221 1.409-0.179v0l1.406-1.219 0.813 0.938c-0.978 1.908-1.887 3.225-2.726 3.951v0c-0.645 0.559-1.281 0.697-1.907 0.415-0.627-0.273-1.521-1.079-2.682-2.418v0l-0.119 0.103c0.274 1.63 0.141 3.209-0.401 4.739-0.542 1.529-1.428 2.827-2.658 3.893v0c-1.319 1.143-2.661 1.685-4.025 1.625-1.369-0.056-2.588-0.701-3.659-1.936zM226.001 246.03v0c0.585-0.507 1.064-1.187 1.437-2.04 0.378-0.857 0.548-1.748 0.512-2.671v0c-0.029-0.705-0.213-1.413-0.553-2.127-0.34-0.713-0.845-1.456-1.516-2.23v0c-0.305-0.352-0.621-0.691-0.946-1.017-0.316-0.325-0.63-0.627-0.941-0.904v0c-1.403 1.798-2.419 3.308-3.045 4.528-0.627 1.221-0.909 2.269-0.846 3.144 0.067 0.88 0.445 1.716 1.133 2.509v0c0.778 0.898 1.583 1.416 2.416 1.555 0.832 0.139 1.616-0.11 2.349-0.747z" fill="#398378" data-fill-palette-color="primary"></path><path d="M246.548 225.215l1.201-3.058-22.335-15.821-2.487 2.147-1.39-0.984 4.172-5.889 24.368 17.261 2.487-2.148 1.39 0.985-6.016 8.492z" fill="#398378" data-fill-palette-color="primary"></path><path d="M250.899 173.766l-0.156 2.645 15.267 13.116c1.716 1.475 3.076 2.743 4.079 3.802 1.004 1.059 1.642 2.054 1.915 2.985 0.267 0.929 0.186 1.961-0.242 3.097v0c-0.459 1.216-1.174 2.135-2.145 2.758-0.972 0.623-1.949 0.749-2.932 0.377v0c-0.725-0.273-1.249-0.706-1.572-1.298-0.321-0.598-0.356-1.232-0.104-1.902v0c0.225-0.596 0.566-1.007 1.024-1.234 0.451-0.23 0.963-0.237 1.534-0.021v0c0.362 0.137 0.686 0.339 0.97 0.608 0.276 0.273 0.499 0.574 0.669 0.905v0c0.285 0.044 0.519-0.046 0.702-0.272 0.189-0.223 0.319-0.427 0.388-0.611v0c0.137-0.362 0.174-0.731 0.112-1.105-0.066-0.383-0.325-0.859-0.776-1.429-0.448-0.562-1.216-1.287-2.305-2.175v0l-1.263-1.003-21.925 0.905-1.612 2.043-1.594-0.601 3.277-8.687 1.712 0.288-0.302 3.033 17.392-0.047 0.055-0.148-13.363-10.629-1.585 1.969-1.594-0.601 2.781-7.37z" fill="#398378" data-fill-palette-color="primary"></path><path d="M4.534 144.006c0-6.3 5.107-11.407 11.407-11.407 6.3 0 11.407 5.107 11.407 11.407 0 6.3-5.107 11.407-11.407 11.408-6.3 0-11.407-5.107-11.407-11.408z" fill="#398378" data-fill-palette-color="primary"></path><path d="M252.652 144.006c0-6.3 5.107-11.407 11.407-11.407 6.3 0 11.407 5.107 11.407 11.407 0 6.3-5.107 11.407-11.407 11.408-6.3 0-11.407-5.107-11.407-11.408z" fill="#398378" data-fill-palette-color="primary"></path></g><g id="text-1"></g></svg></g></svg></g></svg></g><g></g></svg></g><defs></defs></svg><rect width="280" height="280" fill="none" stroke="none" visibility="hidden"></rect></g></svg></g></svg>